<mxfile host="app.diagrams.net" modified="2022-09-05T05:34:00.250Z" agent="5.0 (X11; Linux x86_64) AppleWebKit/537.36 (KHTML, like Gecko) Chrome/103.0.0.0 Safari/537.36" etag="ur-zZh_Qhkq_DaKGzDs8" version="20.2.8" type="github">
  <diagram id="C5RBs43oDa-KdzZeNtuy" name="Page-1">
    <mxGraphModel dx="1983" dy="739" grid="1" gridSize="10" guides="1" tooltips="1" connect="1" arrows="1" fold="1" page="1" pageScale="1" pageWidth="827" pageHeight="1169" math="0" shadow="0">
      <root>
        <mxCell id="WIyWlLk6GJQsqaUBKTNV-0" />
        <mxCell id="WIyWlLk6GJQsqaUBKTNV-1" parent="WIyWlLk6GJQsqaUBKTNV-0" />
        <mxCell id="_GL-RXjxP_ZW7CNbRat9-5" value="" style="shape=image;verticalLabelPosition=bottom;labelBackgroundColor=default;verticalAlign=top;aspect=fixed;imageAspect=0;image=data:image/png,iVBORw0KGgoAAAANSUhEUgAAAIUAAAB1CAYAAABgSCIlAAAABmJLR0QA/wD/AP+gvaeTAAALf0lEQVR4nO2dfUxTVx/HP60EJi8TZGwCusE0arKw7Y9t4NuQIIpvCENZUpwh4nhRxxLDjHMuosuyROKzlIbNKKVRxzajItsfM5sMNCjPXhzL3jQm6LKMtTMYX8IQEKTPHzw0lNvSoqX3Tn6f5CbtOffc82vv955zer739oAgCIIgCIIgjAE6F2lzgC3+DkRQjf8C/xmaEOBip2nA6uTkZL9EJKjHhQsXaG9vV6S7EgUAZWVlYxmPoAHKyso4c+aMIl2vQiyCxhFRCApEFIICEYWgwO1AUw1SUlLc5jU2NqoWR1hYGImJiZSUlBAWFua3ONRCU6IAqKysJDo62m/12Ww2iouLqaurcxmH3W7n2rVrVFRUYDKZ2L59u99iUwvNiSI8PJyIiAi/1We327l169aIcUyePJnCwkLeeustv8WlJv+qMcXbb7/Nhx9+6Hjf19dHRkYG3377LQB3796lqqqKnJwcMjIyMBqN9PX1AQNdQlNTEwUFBaxYsYJDhw4BsHHjRgCys7NHrFuv1zt1HU1NTeTn55Oens7LL79MbW2tI+/s2bOsX7+eJUuWYDAYOHXqlCNvpBi1guZE0d3d7XIDSE1NdZps+e677wgMDOT5558H4MiRI7S1tVFZWYnRaOS3336jqqrKsX9DQwPvv/8+GzduxGKx0NHRwQcffADA8ePHXcbR1dVFW1sbZrOZxYsXA3D79m12797N7NmzqampoaCgAJPJREdHB93d3ezatYusrCw+/fRTXnnlFfbs2UNPT49XMWoBzXUf+fn5LtMbGxuZM2cOe/bs4dKlS8yaNYuGhgbS09PR6we0ffLkSSoqKoiIiCAqKorCwkKnliUzM5OQkBCWLFlCeXk5HR0dXscRHBzMG2+8AUBgYCDV1dU8+uijBAUFMWXKFAA6OjoIDw9Hr9fT19dHcHAwS5cuJSUlhcDAQK9i1AKaE0VNTQ0xMTEu84KCgpg3bx5nzpwhLi6O5uZmDhw44Mhvb2/npZdecioTGhrqeB0ZGQnAhAkTRhVHT08Px44dY8uWLXzyyScEBARw9epVjEYjXV1dxMXFOcoFBwdjMpk4fvw4Bw8eZObMmeTm5vLMM894FaMW0JwoPJGamorJZGLGjBnMnDmT2NhYR15kZCTl5eWOk9nZ2cn169cd+YMtymgJCgoiKyuLqqoqbt68SWhoKDt27KCsrIykpCR6e3v54osvALhz5w49PT28+eab2O12GhsbKS0tpa6ujpCQEI8xagHNjSlu3rzJjRs3FNsgzz33HP/88w8Wi4Vly5Y5lV20aBH79u3DZrPxxx9/sG3bNsVYwR1dXV1u47DZbFgsFqKiopg0aRJdXV3cuXOHCRMm0NPTg8ViAQbGGgClpaWcOnWK69evc+vWLfR6PQEBAfcdo7/QXEuxadMml+mDk1cBAQEkJyfz9ddfM9zeX7t2Lfv372fz5s309vYyd+5cioqKRqxvypQpPPXUU2RnZzuu9uFx6PV64uPjKSsrQ6fTERYWxoYNG9i9ezdhYWEYDAZSU1PZunUrtbW1bN26FbPZTHl5ObGxsezcuZOgoKB7jtHfuLrJJgc44s8ZREEd/m+dHwPWDE3XXPchqI+IQlAgohAUiCgEBSIKQYGIQlAgohAUuJ28On36tB/DENTA1TMf7sgB7LKNm+0ow3DbUsiM5oOPPAwkeI2IQlAgohAUiCgEBSIKQYGIQlAgohAUiCgEBSIKQYGIQlAgohAUiCgEBSIKQYGIQlAgohAUiCgEBSIKQYGIQlAgohAUiCgEBSIKQYGIQlAgohAUuH3uY6T/yRYebNyKYufOnf6MQ1CBo0ePcuHCBUW6W1EsXLhwLOMRNIC754VlTCEoEFEICkQUggIRhaBAlX/clWWhBlYkMplMREZGsnjxYhISEsa0vtGg2t8wj/dloYxGI6tWrSI6OpqysjIsFgs6nas/QPY/qoliPC8LdeXKFaxWK0lJSeh0OqKiomhubmbevHljWq+3+HRMUVJS4pPjPOjLQtXX1zN37lxHyzB//nynsmrjU1H88ssvXu87npeFamlpYerUqY4Ypk2bRktLi9ff3VijWvcxnpeFslqtTJs2zVHn1KlT6ejooLOzk5CQkNF+lT7nvkVRUlLi1EIMjugTEhKoqKhwW248LwvV3d3tFO/DDz8MDLRMD4Qohp74lJQUn/2kfJCXhYqIiMBqtTJ9+nRgoOXQ6XR+HXiPhGqTV+N5WahZs2bx119/OWL4888/iY+Pd5RVG59G4U1zPch4XhYqMTGRH3/80VHv5cuXSUpK8vq7G2tkuSgV6O7uJjc3F7PZTGhoKLm5uRiNRsdA1l+4Wy5KG+3VOOOhhx4iJyeHuro6YmJimDNnjt8FMRJiiKnEmjVrCA8P5+7duxQUFKgdjhPSUqiEXq8nMzNT7TBcoklRiIuqrouqSVGAuKhquqiaFYW4qOq5qJp0ST0hLurYoopLWl1dzYoVK9i1axc///wzV65cUZwMcVHVc1H93n3Y7XYuXrzIwYMHaWlpoaqqisuXL2MwGJz2ExdVPRfV7y6pTqejvLwcgLS0NNLS0lweV1xU9VxUzbqknhAXdezQ7IymuKjquaiquaSeEBdVPRdVXFIN4i8XVVzSfxFqu6iaHVOMd9R0UaWl0ChquqjSUggKRBQawmq1jnjbwPB8m83G9u3b2bt376gexPKE30Vhs9k0e3OJ2oSGhiqm+0fCaDSycuVKsrOz2bt3L3a73Sdx+F0U7ixqYWA6+9VXX/Vq36H2elxcnMNe9wV+t86HW9Qmk8nhhcDAb/T09HRaW1sdzeU333xDXl4eWVlZGI1Gent7gZHt55G4F2t9eNM9/H1KSgpfffUV69evJzMzk5qaGurr6zEYDCxfvpzq6mqPcQ09pt1u58SJE+Tl5bFs2TI2bdrEr7/+6th3LO11v1vnwy3q5ORkzp07R39/PwDnzp0jJiaGGTNmOMrU1tby7rvv8t5773H+/Hk+/vhjwLNF7o57sda94ezZs1RWVlJYWEhVVRWnT5/GbDZTXFzM4cOHvT4OwIkTJzh8+DAbNmzgo48+Yt26dU4xjqW9rvpAMyEhgYCAAH766Sdg4AoYvF9hkOLiYmJjY5k9ezb5+fnU19cDA/bz66+/TlRUFPHx8RQWFnL+/HmPdXoqN9RaB7w+matXr2bixImO+HNycpg4cSJLly4d1XEAPvvsM4qKipg/fz6TJ08mMTHRqWsZyV6/X1R7wHgQnU7HggULaGpqYvr06fzwww9s2bLFaZ+hV8Tjjz9Oe3s74Nkid4cvrHVXg7pHHnnEqdzw96Ph6tWrTq0l4HBNYWztdU1Y5wsXLuSdd97hiSeeICEhgaioKKf8trY24uPjHa8HT5oni9wd92Ot9/f3o9fruXbt2ug+5CiJjo6mtbWVJ5980pH2+++/O16Ppb2uWvcx1KJ++umn6e/v59ChQ4quAwYGo1arlUuXLnHgwAEWLVoE3LtFfi/lBq++L7/8ktu3b3ttxd8rWVlZ7Nu3j+bmZm7cuMH333+P2Wx25I+lve5TUXjTTA61qAfR6XS8+OKLdHZ2smDBAkWZtLQ0SktL2bZtGy+88AJr164FBuznxx57jM2bN/Paa68RGxvr0SK/13KTJk0iLy+PyspKioqKWL58ucd67oeVK1eybt069u/fj8FgoLq62uku8sTERFpbWx3vfWmva8Y6N5vN/P33304f3Gq1kpub69cHgP4t+MJed2edq/7ro7e3F5vNxsmTJ8f86nuQGGqvNzQ0+NReV90lvXjxIjt27GDVqlU8++yzTnnBwcFkZGSM+pie1ipRs+XxZWxr1qzh888/97m9rpnuQ/A/mu0+BO0hohAUiCgEBSIKQYHbXx/u1pcSHhwGPSRvyAHsso2b7SiCIAiCIAiC4A/+B1VwvglZz+O/AAAAAElFTkSuQmCC;" vertex="1" parent="WIyWlLk6GJQsqaUBKTNV-1">
          <mxGeometry x="594" y="300" width="133" height="117" as="geometry" />
        </mxCell>
        <mxCell id="_GL-RXjxP_ZW7CNbRat9-8" value="" style="shape=image;verticalLabelPosition=bottom;labelBackgroundColor=default;verticalAlign=top;aspect=fixed;imageAspect=0;image=data:image/png,iVBORw0KGgoAAAANSUhEUgAAAKsAAAFRCAYAAAALll3SAAAABmJLR0QA/wD/AP+gvaeTAAAgAElEQVR4nO2de1hTV7r/vwQGELmIGaiCValiHT2i1jPFsaOCgyitOqIO1kSLghIUxeqDeKMq0o6PUhhDBgkYQFQERkDLOa22VrAPSD21xV7kVKtSGbl5sIBVIBgIvz/4ZTeXnRskJDusz/PkgezLWmtvXlbW3vuTdwEEAoFAIBAIBAKBQDAIVjTL/gRg52A3hEBQ4m/KC2xoNnoZwKr58+cbvzkEghLNzc343//9X9p1dD1rCICCsrIyozaKQKDj2rVriI+PB2hikzX4zSEQ+gcJVgJjIMFKYAwkWAmMge5uwKAgFouRk5ODL774Ai0tLXBzc8OCBQvA5XJha2tr1Lr9/f0V3js5OcHX1xfR0dFwcnIyat26UlZWhsOHD6tdLxKJ4OnpqfUcKh+rch1MwmTBmpKSgqamJsTHx8Pd3R21tbUQCAR49uwZoqOj0djYiM2bN+PixYtay9JnWxmpqakYPXo0ent78eTJE6SkpEAgEGDfvn0DOSyD8cYbb6C4uBhA3/FFRUVR7wHA2dkZSUlJGs+hDNmxMh2TDQMqKioQEREBb29vuLi4wMfHB9u2bUNlZSUAoLe3F0+fPtWpLH22lTFixAi4urpi5MiRmDRpEng8Hm7cuKH3cRgLW1tbuLq6wtXVFSNGjAAA6r2rqyusra21nkMZsmNVfjENkwWro6MjSkpK8Pz5c2qZj48P8vPzAQBbtmwBAKxcuZJaX15ejvDwcCxevBirV6+mehq6bXt6eiASiRASEoJly5aBz+eju7tbbXtYLJbCEEBdXUDfP1pYWBgWLVoEDoeDK1eu9Lvep0+foqurS/PJUoO2c9gfBtIeY2OyYI2Li8NPP/2EVatWYc+ePSgqKsKTJ0+o9SdOnAAAFBUVAQA6Ojpw+PBhTJ48Gbm5uYiIiKA+8pS3BYCCggLU1dUhNTUVfD4f1dXVEIlE1HqxWAyxWIzOzk7U1dUhMzMTgYGBWusSi8WIj49HcHAw8vPzsW7dOhw7doz6A2urV8bdu3dx9OhRrF+/Hu3t7UY5h8rHqvyi48GDB1izZg3S09PR1NTUr3YZC5ONWadMmYKTJ0/i/v37uHnzJi5fvgyhUIh9+/bRXhTY2toiKysL7u7usLOzw6hRowAAz549oy3/0qVLSElJgaurK9zc3MDj8ZCWlkatDw8PV9jewcEBu3bt0lrXiBEjwGKx0N3dDQcHBwQFBcHf35+6oNFUr0QiwbVr13DhwgV0d3dj2bJl2L59O+zt7Y16DpWPVQbdBdZrr72GkydP4r//+7+xfft2TJw4EcHBwZg1axasrOgeeA4eJgnWrq4uVFZWws/PD97e3vD29gaHw0FOTg6EQiFtsNrY2ODx48fg8/no7OzE+PHjNdbR3NyMFStWKCxzdHSkfs/NzYWHhwfVnsLCQuzcuRN5eXka63JwcIBAIEBRURFycnIwadIkcLlcTJ8+XWO9VVVVeP/996m7DpMnT9bnlKmgzzmUP1ZdYLPZCA0Nxdq1a1FRUYEzZ84gJSUFSUlJcHNzG1C7B4JJglUqlSIhIQHjxo3DK6+8Qi2fNWsWSkpKaPfp7u5GXFwcDh06hNmzZ0MikeCTTz5RWwebzUZiYiL1R2pvb0dLSwvttnZ2dggODoZIJEJbWxscHR3V1vXixQt0dXVh79696O3tRVlZGWJiYnDx4kUMHz5cbb0SiQTjx4/H7du3MWHCBIwZM0bhn0df+nMO9aW1tRW1tbVobm7GH/7wB9jZ2Rmk3P5ikjHrsGHDEBgYiPj4eHz11Veor69HeXk5Tpw4gYCAAIVtOzs7qZ8vXryAtbU1urq6kJ2dDaBvfKm8LQAEBARAKBSisbERtbW11JhORltbG1pbW9Ha2orGxkZkZ2fDzc0NLi4uWuuKiYnBlStX0NLSgqdPn4LFYsHGxkZjva+88gqSk5ORkJCAR48eYd26dfjwww9x7949o59D+WOVf9HR29uLr7/+GgcOHMCWLVsglUohEAjw3nvvwdnZuV9tNRQms66kUilycnJQUVGB+vp6sNlsLFiwAKGhobCxsYFUKkV0dDRqamqoXu3cuXPIy8uDk5MTOBwOvv32W1RVVaGwsFBlW4lEgoyMDJSWlkIikWDOnDl49913YW9vrzLMYLFY8PLyws6dOzFlyhSNdRUXF+Pq1avIzMzEkydP4OnpiU2bNmHOnDla65Wnvb0dly5dwsWLF5GcnAx3d3e156qhoQFcLldljKntHAL6PxQoLy9HQUEBgoODMX/+fKqcwUKTdUUUQRPT29uL3t5esFjm8eS7p6cH1tbWJqtfU7Ca7G4AoQ8rKyuTX2XLY8pA1YZ5/DsTCDpAgpXAGEiwEhgDCVYCYyDBSmAMJFgJjEHtratr164NYjMIhD6qq6vVrlP7UMBorSEQdEP3hwLkCRbBFMg9wVKBjFkJjIEEK4ExkGAlMAYSrATGQIKVwBhIsBIYAwlWAmMgwUpgDCRYCYyBBCuBMZBgJTAGEqwExkCClcAYSLASGAMJVgJjIMFKYAwkWAmMgQQrgTGQYCUwBhKsBMZAgpXAGEiwEhgDCVYCYyBJLgjmiu5JLg4ePGjcphAINFRXV6OwsJB2ndpg9fPzM1Z7CASNqAtWMmYlMAYSrATGQIKVwBhIsBIYg0nmwRKLxcjJycEXX3yBlpYWuLm5YcGCBeByudTs0sZCecY9JycnavJfJycno9bd2NgIgUAANpuNwMBATJs2zaj1WRom6VlTUlJw9+5dxMfHo6CgALt27UJlZSWEQiGAvj/q8uXLdSpLn21lpKamori4GEVFRfjwww+pIDI2fD4fS5cuxcqVK5GUlITe3l6j12lJmCRYKyoqEBERAW9vb7i4uMDHxwfbtm1DZWUlgL4pIp8+fapTWfpsK2PEiBFwdXXFyJEjMWnSJPB4PNy4cUPv49CHmpoaNDQ0YPbs2Rg/fjzc3Nyo4yXohkGDNTo6WqftHB0dUVJSgufPn1PLfHx8kJ+fDwDYsmULAGDlypXU+vLycoSHh2Px4sVYvXo1iouL1W7b09MDkUiEkJAQLFu2DHw+H93d3Wrbw2KxFIYA6uoC+v7RwsLCsGjRInA4HFy5ckWnej///HPMmTOHmvryz3/+s8K+BO0YNFh/+OEHnbaLi4vDTz/9hFWrVlFTnD958oRaf+LECQCgplzv6OjA4cOHMXnyZOTm5iIiIgICgQDPnj1T2RYACgoKUFdXh9TUVPD5fFRXV0MkElHrxWIxxGIxOjs7UVdXh8zMTAQGBmqtSywWIz4+HsHBwcjPz8e6detw7NgxdHV1aa23qqoKY8aModrw8ssvo6qqSu9zPJQxyQXWlClTcPLkSdy/fx83b97E5cuXIRQKsW/fPtopx21tbZGVlQV3d3fY2dlh1KhRAIBnz57Rln/p0iWkpKTA1dUVbm5u4PF4SEtLo9aHh4crbO/g4IBdu3ZprWvEiBFgsVjo7u6Gg4MDgoKC4O/vT10Uaqq3oaEBL7/8MlXnmDFj8OzZM7S3t2P48OH9PZVDigEHa3R0tEKPKgu2adOmISUlRWX7rq4uVFZWws/PD97e3vD29gaHw0FOTg6EQiFtsNrY2ODx48fg8/no7OzE+PHjNbapubkZK1asUFjm6OhI/Z6bmwsPDw+qPYWFhdi5cyfy8vI01uXg4ACBQICioiLk5ORg0qRJ4HK5mD59utZ6xWKxQhucnZ0B9PXkJFh1Y8DBKh+Q/v7+Wmd5kUqlSEhIwLhx4/DKK69Qy2fNmoWSkhLafbq7uxEXF4dDhw5h9uzZkEgk+OSTT9TWwWazkZiYSAVke3s7WlpaaLe1s7NDcHAwRCIR2tra4OjoqLauFy9eoKurC3v37kVvby/KysoQExODixcvYvjw4RrrdXV1RUNDAyZMmACgr6e1srKCq6urxvNF+I1BvxswbNgwBAYGIj4+Hl999RXq6+tRXl6OEydOICAgQGHbzs5O6ueLFy9gbW2Nrq4uZGdnA+jrlZS3BYCAgAAIhUI0NjaitraWGhfLaGtrQ2trK1pbW9HY2Ijs7Gy4ubnBxcVFa10xMTG4cuUKWlpa8PTpU7BYLNjY2Git99VXX0V9fT3VhkePHsHLy4val6AdtT5rf+bBCggIwOeff651O6lUipycHFRUVKC+vh5sNhsLFixAaGgobGxsIJVKER0djZqaGqpXO3fuHPLy8uDk5AQOh4Nvv/0WVVVVKCwsVNlWIpEgIyMDpaWlkEgkmDNnDt59913Y29urDDNYLBa8vLywc+dOTJkyRWNdxcXFuHr1KjIzM/HkyRN4enpi06ZNmDNnjtZ6P/74Y9y6dQtxcXEAgKysLPT09GDTpk16n2dLRm4eLJXYNGiwEtQjFovB5XKRmZkJR0dHcLlc8Pl86gKO0IemYCWfQYOEvb09QkJCcPHiRXh4eOBPf/oTCVQ9ISLLIPK3v/0NI0aMQE9PDyIiIkzdHMZBetZBhMVi6e0xEH7DLIOVWFnEyqLDLIcBxMoiVhYdZhmsxMoiVhYdJrGutEGsLGJl0WES6yorKwtLlixBfHw8vv/+e9TU1CgEE7GyiJVFx6BfYPX29uLHH39ETk4OqqqqIBKJ8ODBA3A4HGobYmURK4uOQbeurKyskJiYCABYuHAhFi5cqLCeWFl9ECtLlUG3rrRBrCxiZanD7O4GECurD2JlqWIS60obxMoaulYWsa4YALGy+iDWFQMgVpZ2zG7MOpQhVpZmSM9qRhArSzOkZyUwBpMEq7+/PxoaGrRu19DQQPsQQL4c+dfSpUuxf/9+PH78uF/l9bcdmlB3rLqWOZC6gT7rbN++fUhKStL5cbi5YtY9q6OjI/UYVp3qJ6/zHT9+HD09PXj//fe1lmfodgykTGNiSdqhWQers7MzdZ9Rneonr/NNmDABu3btwu3btxUeCNCVZ+h2DKRMY2Fp2qFZKIL+/v4oLy9HREQElixZgtOnTwNQ/AikU/3oYLH6Dqmnp4fa/9atW3j77bfx2WefKXyktre34+jRo1i+fDlCQkIgFAohkUg07qfcDoFAQLkOQN/90sWLF+P+/fsa26n88a7uHCgjFAqxadMm/PrrrwA0K4mWph2aRBGko7S0FP/4xz+wZcsWZGdnqxhTdKofoKjzNTY24vjx45g8ebKCf1pQUIDIyEhMnDhRYV8+n4/m5makpaXh6NGjuHnzJvLy8jTup9yO+fPn4/r165BKpQCA69evw8PDQ6UuQ5yD9PR0VFVVITk5Gc7OzlqVREvTDs1mGLB8+XIMHz4cixYtAqBe71MmPDwcQUFBePPNN/HOO+/g2bNnOHDggMI2PB4Pfn5+sLe3p5b19PSgtLQU27Ztw+jRo+Hl5YUNGzYo9Dx0+ykzbdo02NjY4LvvvgPQ15vJ3Fd90XQOMjIykJ+fjwMHDlD/iFKpVEVJ/K//+i9KSdSkHTKRQVcE1cFmswEA1tbWetUvr/OpY+zYsSrLWltb0dPTo7Cvp6cnmpubNe6njJWVFebOnYvy8nJMmDAB33zzDXbu3KnHEfyGpnNw584dzJw5E7m5udi9ezcA7UqipWmHZqMIysaaxoDuj+/q6gpra2s0NDRg3LhxAPp6ot///vca96PDz8+P0hqnTZsGNze3frVT0zk4cuQImpubER4ejkWLFmHGjBlalURL0w7NZhigK/Kq30CwtraGv78/BAIBmpqa8PDhQ2RmZqrI4Lq0w8fHB1KpFKdPn6YdAsgrh7KXvtjZ2WHMmDHgcDhITk6GRCIBoFlJtDTt0KDBqu9HuD6MGjUKU6dO1Xo3QB+2b98ONpuNyMhIxMTE4PXXXweXy9W7HVZWVpg3bx7a29sxd+5clX2ioqKwYsUKhVd/kd2bPXfuHGxtbREbG4vs7GysWbMGJSUlOHjwIOzs7AAAvr6+CnclHjx4gNmzZ/e7blNDFEEDkZmZiaamJuzfv9/UTaFgonaoSRFk3DDA3JBIJGhsbMSlS5fw1ltvmbo5Cshrh6WlpYzXDkmwDpAff/wRPB4PQUFBmDFjhqmbo4IlaYfMHGmbET4+Pmq/yGgOWJJ2SHpWAmMwSc+qSXkbjAs7kq2PmZhsGJCamorRo0frvV9jYyM2b96Mixcv9rtuPp+Pv/71rxg9ejQOHTqE7OxsSvYgmC8mC1aZ2qcvA1X05LU5KysrSpt74403+l0mYXAwC0WQDnXKnLKip6zzRUREaFT2LE2bG0qYTBGUqX3KL3nolDl1qqBM59u4caNGZc/StLmhhMmGAcqZ+mTIX2DJK3OJiYkatUEejwcvLy/09vZSyt7MmTNVlD2SrY+5mEwR1EXt00cblOl82pQ9S9PmhhJmowjSoY82KB/QmpQ9S9PmhhImGwa0tbVh2LBhKst1DZrOzk7a/QFFZU/5EaOlaXNDCYP+hfRRBKOiomiXa+uZ5RU9dTlYZcre5cuXVZQ9X19f3Lp1i3rPdG1uKGHQYNU13aUuQwXlbeTf//Of/6R+9/DwoC3PyckJc+fOhYODg8Lyv/zlL8jKyqISA3/66afg8/k6tZtgWizODdCm7FmaNjeUsLhg1UXZsyRtbihhcVcVuih7lqTNDSXMwroaNWoUfHx8sGXLFri4uOhdXkNDA7hcrkFumxEjy3wxuXUllUrx6NEjFBUVISIiAllZWXrfnDdkkjNiZJkvJhuzyqwrNpuNGTNmICEhAaNHj8b58+f1LstQSc4sLZGZpWFW1tWyZcuoCX2VE5fJv9eWcE1TkrOPP/4YGzZswFtvvYUdO3bgyy+/pPYlRpZ5YzaJ2YA+qUSXJMMy1CVcA+iNrcuXLyMnJwdRUVHIy8vDunXrKIsLIEaWuWNWt670TXSrKXEaXZKz8+fPg8fj4T//8z/h7OyM1157DRs2bKD2sbREZpaG2SRmA4D6+nq1JhZdIGtKnEZnbDU0NMDLy0thO/m5V4mRZd6YlXX10UcfqTynl6V1lJ/CXYYmF4HO2Bo1ahQePnyoMCdsbW0t9Tsxsswbk1tXUqkU9fX1OH/+PJqamhASEgIAVE/26aefYv78+SrfDOgPK1asQHp6OpydnfHqq6/i/v37OHXqFLWeGFnmjVlYV+7u7pg+fTrS09Mp8cTFxQXr169Hamoq8vLyEBUVhfLy8gG1b+nSpQD6RJjm5mb84Q9/QEREBI4cOQKAGFnmzpBKzHbjxg24u7srDAOuX7+OkydP4tSpU4xMZGZpkMRs/58HDx7ggw8+wL1799DV1YU7d+5AJBJR39EiRpZ5M6QGY2vWrEFXVxfi4uLw9OlTjBo1CgEBAdQ4GegzskpKSoiRZYYMqWBlsVgICwtDWFiYxm2IkWWeDKlhAIHZmIUiKI+2CztddECi+VkmJlcE9UV5HlW6JG1E87NMGJeYTds8qiTxmuViVoqgjMrKSvztb3/D8+fPAQBXr17FunXr0NXVpXU+V6L5WS5mmZhtzpw5mDVrFlJTU9HW1oYTJ05g//791JQ5MuiStBHNz3Ix28Rs27ZtQ1hYGGJiYvDXv/4VkydP1qlcknjNcjHbxGzDhw/HkiVLkJOTgw8//FDn9hDNz3IxK0VQnubmZly4cAGzZs1CWloa9u7dq9N+RPOzXEz2UIBuPlPZnKa9vb04duwYVqxYgffeew/ffPONxi/uyc+jSjQ/y8UsFEF5ysrK8NFHH6GtrQ1r1qyBtbU1duzYgeTkZPj4+ChsS5ekjWh+lovFKYJE82M2mhRBi/tslNf8PDw8iOZnQVikyEISr1kmFtezAkTzs1QssmclWCYm61lbW1shFArxww8/oK2tDS+//DK4XC7mzZundV95TVBZGVTWD52cnODr64vo6Gg4OTn1u71ETTQ9JgnW58+fY9OmTZg9ezYOHDiAYcOG4auvvsIHH3wAOzs7+Pr6Dqh8mX7Y29uLJ0+eICUlBQKBAPv27TPQEdBD1ETjYpJgPXXqFKZPn46YmBhq2bhx49DS0oLz588POFjl9cORI0eCx+Nh//79AypTG0RNND4mUQSvXbumoPXJCA0NRWxsLPW+vLwc4eHhWLx4MVavXo3i4uJ+tYvFYikMAdSVK5VKcerUKaxevRrBwcE4cuSI2jxXQqEQmzZtwq+//gqAqImDwaArgh0dHfjll19o81TZ29vD3d2d2u7w4cOYPHkycnNzERERAYFAoHFKTBky3bCzsxN1dXXIzMykvm6tqdzCwkKUl5fj6NGjSE5OxqNHj3D27FmV8tPT01FVVYXk5GRKlCFqovEZ9GFAT08PAGgdy9na2iIrKwvu7u6ws7OjbuzrEqzK+qGDgwN27dqltdyPP/4YERERVLK2PXv24N///rdCWRkZGcjPz8eZM2cUemuiJhqfQVcEnZycwGaz8fDhQ0ydOlVh3d27d3H8+HEcP34cdnZ2ePz4Mfh8Pjo7OxWy/WlDXj/s6upCYWEhdu7ciby8PNjY2Kgt9/Hjx/D09KTejx07VuUT4M6dO5g5cyZyc3Oxe/duajlRE43PgIcBKSkpKCsro27pyH7X5LLOmTMH//rXv1SWX7lyBd3d3bCzs0N3dzfi4uKwatUqpKam4t133+1X++zs7BAcHIympia0tbVpLJfNZqOpqYl6/+DBA+Tm5iqUd+TIEezcuROlpaX49ttvqeUyNVEGURMNj0keCmzatAnff/89/v73v6O6uho1NTU4ffo0iouLqQQUnZ2dePHiBaytrdHV1YXs7GwAfT2VNuT1w8bGRmRnZ8PNzQ0uLi4ayw0MDIRIJMLPP/+M2tpa8Pl8heAF+oJ/zJgx4HA4SE5OhkQiAUDUxMHAJIqgk5MTMjIyIBQKER8fj/b2dowdOxYJCQn405/+RG2zceNGHD58GE5OTuBwOPjLX/6C2NhYhekw6ZDXD1ksFry8vHDo0CFYWVlpLPdf//oXxGIxYmNjIRaL4evrCx6PR1sHh8PB1atXce7cOYSGhhI1cRCwOEXQVBA10TAMKUXQVBA10fgQkcWAEDXRuJCe1YAQNdG4mEViNjs7O7z66qt49913VWZTGQyILcUMTDYMSE1NRXFxMYqLi5GZmQkPDw/ZwNpoNDY20vZ8fD4fS5cuxcqVK5GUlKT3fFyEwcHkc7e6urrC09MTPB4PtbW1KonWDIm2RG5kvlbzxmwSs9nY2MDGxoaarQXo8whEIhFCQkKwbNky8Pl8dHd3A+ifOUUSuTEbs0jM9ssvvyA7OxsLFy7E7373O2qbgoIC1NXVITU1FXw+H9XV1RCJRP02p0giN2ZjNonZhg8fjpycHIVlly5dQkpKClxdXeHm5gYej4e0tDRs3LhxQOaUPMSWYg5mkZitq6sLaWlpOHToEAQCAbVNc3MzVqxYobCfo6PjgM0peYgtxRzMIjGbnZ0dgoKCsHPnToXlbDYbiYmJVFC3t7ejpaWFMqcOHTqE2bNnQyKRUOmDZOaULIAfPHiAGzdugMvl0tZNErkxB7N5guXq6oqOjg6FJGsBAQEQCoVobGxEbW0t9uzZg6KiogGbUySRGzMxWWI2Zdzc3DB8+HD8+uuvGDZsGABg7dq1yMjIwNatWyGRSDBnzhxERkbC3t6+X+YUSeTGbIa8dUVsKfOCWFcaILYUczCbMaspIbYUMxjyPStAbCmmQHpWAmMgimA/KCsrw+HDh9WuF4lE1H1bYzEUE8WZxdytHR0dOHv2LOLj43Hq1ClTNUktynPEvvHGG5Q409jYiKioKIXURrKnYMZkKM5haxZzt7q6uoLH4yE4OBhPnz6Fi4uLqZpFi7JaaGtrC1tbWwC/PWAY7CdeQ3EOW8Yqgp988gnCwsLw5ptvYvPmzaiqqoK/v7/C3K4AVN5rKrOiogJhYWFYtGgROBwOpQrSqYWakNV569YtvP3227h9+7bGJHP+/v4oLy9HREQElixZgtOnT1Pr1LVpKM5hy0hF8NKlSxCJRAgLC8PZs2exYcMGHD16VKd61ZUpFosRHx+P4OBg5OfnY926dTh27Bi6urpo1UJd64qMjISHh4fWJHOlpaX4xz/+gS1btiA7OxvPnj3T2CZ5hor6yEhF8ObNm4iMjMSf//xnAMDrr7+OjRs34u9//7vWetWV+c4774DFYqG7uxsODg4ICgqCv78/9XHfH3g8Hry8vNDd3a1WaZQld1u+fDmGDx+ORYsWITExEc+ePcOIESP63SZLVB8ZqQhKJBJMnDhRYbm6q2/l71OpK9PBwQECgQBFRUXIycnBpEmTwOVyMX36dLXHoA2ZmqhJaZTBZrMBKPoVA2mTJaqPjFQE9+3bh/v37+OVV16htv35558V9pVKpWCxWHjy5IlOZb548QJdXV3Yu3cvent7UVZWhpiYGJUrbH2QBZ4mpVEGi6U6IhtImyxRfTSbhwL6KIJLliyBUChEZWUlWltbcfPmTWRkZAAA1Wt8+umn6OjoUBlnqisTAGJiYnDlyhW0tLTg6dOnYLFYCqqgfNv0YSBJ5rS1SbkeGZaoPho0WA2lCMpYu3YtXnrpJWzduhXbtm2Dp6cnIiMjERISgtWrVyMtLQ0cDgdZWVnUM30XFxesX78eqampiIyMxFtvvaVQj7oybW1tERsbi+zsbKxZswYlJSU4ePAgNcaUqYX9QT4Z3IYNG+Dh4UEpjZrQ1CZ56Nrn6+uL+/fvU+8tQX20GEVQlyc6Qwmmqo9EERyCWKL6aDZjVoLhsTT10WJ6Vg8PDzIEUMLS1EfSsxIYA1EE+wFRBE0DUQR1gCiC5gFRBHWAKILmAVEEiSLIGIgiSBRBxkAUQaIIMgaiCIIogkyBKIJEEWQMZvNQgCiC9BBF8DeIIkgUQcZAFEELhSiCBMZAFEECoyCKoJlCFEFVLE0RJNZVPyDWlWkg1pUOEOvKPCDWlQ4Q68o8INYVsa4YA7GuiHXFGIh1RawrxkCsKxDriikQ64pYV4zBbJ5gEeuKHmJd/Qaxroh1xS/r1t0AABIwSURBVBiIdWWhEOuKwBiIdUVgFMS6MlOIdaWKpVlXpGclMAaiCPYT5WMYNWoUfHx8sGXLFkrEMbeLPn9/f4WHMcqYu1Josp41NTUVxcXFKC4uRmZmJjw8PGRXgWZHY2Mj7cep7BgKCwuxe/dudHR0ICIiAu3t7QAUNb7BbFd/4fP5WLp0KVauXImkpCSVp3+mxmTBKlMEXV1d4enpCR6Ph9raWhXVzRygU/CA346BzWZjxowZSEhIwOjRo3H+/HkAihrfYLarP8grhePHj6eUQnOCKIIGVgSXLVuGGzdu0NatTfe7ceMG1q9fj+DgYPD5fEgkEgBQqxcqt0sqleLUqVNYvXo1goODceTIEaqXl1FVVYXQ0FAVFZEJSiFRBA2sCI4ZMwYNDQ20x6tN9ysuLsYHH3yAI0eO4Ouvv8a5c+fQ0dGhVi9UbldhYSHKy8tx9OhRJCcn49GjRzh79qxCO7788kukp6dj9+7dyM7Opp4YMkEpJIqggRVBdeM8mVijqfzNmzfD09OTOj+ZmZngcrlq9UJlPv74Y0RERFBW1549e/Dvf/9bYZvVq1fD3t6eOnfPnz+Hs7MzI5RCogjCsIpgfX097dW2LuXL92xjx45Fc3OzTnqhjMePH1PBLitDpinKkKmIyt/FYoJSSBRBAyuCH330Ea0wokv5dXV11K27uro6sNlsnfRC+WNramqiAvrBgwe4ceMGuFwutY26LwwyQSk0m4cCTFQE29ra0Nrail9++QXff/893nvvPTQ1NSEkJIT2GLWVLxAI0NDQgLt37+LkyZMICAjQSS+UtSswMBAikQg///wzamtrwefz0dTUpNP5Z4JSaNCWGEoRHDZsGIA+nS8jIwNbt26FRCLBnDlzEBkZSSlyaWlpePLkCcaPH4+IiAi8//77CopgXl4eoqKiUF5eTtWjrkyZjpeZmYnExER4enrSKoLyvVpUVBT1u7u7O6ZPn4709HSFOxoyNJUvY+HChYiJiUFnZycWLFiAtWvX4ne/+x2lFzo5OYHD4VB6YWFhoUK7uFwuxGIxYmNjIRaL4evrCx6Pp9P59/X1xa1bt6j35qgUEkXQDDCHtpuLUkgUQYJWmKAUms2YdSjj4OCAZcuWmboZZq8UWkzPymRFcMSIEdixY4epm2H2SiHpWQmMwWQ9a1NTE06ePInvvvsOYrEYkyZNQlhYGP7jP/6jX+WJxWLk5OTgiy++QEtLC9zc3LBgwQJwudwBJarQBWVdUJ7B7u3NXfMbCCYJ1o6ODuzYsQNTp05FfHw8nJycqJvkAoEA3t7eGveny5qXkpKCpqYmxMfHw93dHbW1tdQz9OjoaLWZ9nQtXxvyWRFNiaVlDpTHJMMAkUiEiRMnIi4uDlOnTsXYsWMRGhqKwMBAFBQUaN2fTo2rqKhAREQEvL294eLiAh8fH2zbto3S3PTR6fqj3skrj/KvwYQJmt9AMIkieOPGDbz99tsqyzdu3Ig1a9ZQ79XpfHTKnqOjI0pKSvD8+XNqmY+PD/Lz8wHQa366qnea2qIr6jIFalMa/f398dlnnyEsLAzLly9Hbm4uPv/8c3A4HLz11lvIysqitmWC5jcQBl0R7OjoQFNTE8aNG0ctk6mCtra2CiKGOp2PTtmLi4vDTz/9hFWrVlGPUOW9AOV99FHvNLVF+RiUX/LQZQrUhYqKCqSmpoLH40EkEuHatWvIzMzE5s2bcebMGaocJmh+A2HQhwE9PT3o7e2FVCqllgUFBSm8ZFy6dAnbt2+Hm5sbvLy8wOPx8PXXX9OWO2XKFJw8eRICgQA+Pj64fPky1qxZo/YCx9bWFllZWYiOjgabzdao3unSlvDwcJXjkD8WQDFToKa6lFm1ahWGDRuGwMBAAEBISAiGDRtGlS8rR5PmZwkMuiLo5OQEZ2dn1NTUYMaMGQB+u2Lu6OhQSPejTudTpqurC5WVlfDz84O3tze8vb3B4XCQk5MDoVBIe7Wuj3qnS1s0fRFPBl2mQGXofNjf//73Cvspv5fBBM1vIJhEEZw3bx4KCgqoYJVRUVGh8F6dzqeMVCpFQkICxo0bp6ANzpo1CyUlJbRt0Ee906ctmqDLFCh/DHRKoz4wQfMbCCa5G7B+/XrcvXsXCQkJqK6uxqNHj1BcXIwLFy4oKGmadD7gNzVO9hEZHx+Pr776CvX19SgvL8eJEycQEBCgULdsH33UO13aItMFlV/a0KY06gMTNL+BYBJFkM1mIyMjAydOnMDBgwdhbW2NP/7xj0hKSlK4o6BJ51NW9mJjY5GTk4P09HTU19eDzWZjwYIFCA0NBQAVzU8+s5829U5TW2TI64LyaPuk0aY06gMTNL+BYDGKIMF8NL+BQBTBIQITNL+BQEQWC8PcNb+BQHpWC8PcNb+BQKwrA+Dv748xY8bgzJkzKuv27NmD//mf/9HpPqy2OujKMNRXYpTvRTs6OsLHxwfR0dF46aWXdC7HmNaXSYYBMuvKysoK8fHxOHHiBKZPn46YmBjcu3dP6/50CclSUlJw9+5dxMfHo6CgALt27UJlZSWEQqHaffQpXxtNTU148OCBwrLnz5/ju+++06scfTFk8jdZormioiIcP34cPT09eP/99wHofk6MmdyNWFc6lq+NWbNm4dq1awrLKisrBzSPli4YMvmbzBwbOXIkJkyYgF27duH27dvo6OjQ6ZwY2/oi1pWBrKv58+erBOsXX3yB+fPnKyxTV2d/k6rRWVrq5oHV1xyTPXHr6elROSd089Ma2/oi1pWBrKtp06ahs7OTGgp0dHTg1q1bVE4pbXUOJKmaMursLl3Nsc7OTjQ2NuL48eOYPHkynJyc1Cank81PO3HiRKNbX4N+gaXOupJHdrGgLoka3TdBZdbV/fv3cfPmTVy+fBlCoRD79u2jFVlk1pUuCc80tUUGi8XCvHnzUFZWhgkTJuDLL7/E1KlTqblZtdXZ36RqdNDNA+vk5KT1GOST5dnY2GDatGk4cOAAbR0yZPPTAsafL5ZYVwayrgDAz88PiYmJ2LhxI+0QQFOdA0mqpow6u8sQ5pgy8m00tvVFrCsDWleyocAPP/yAr7/+WiXRnKY6B5JUTRl1dpchzDFl5P8hjG19EevKQNYV0BdMc+fORVJSEiZPnowRI0ao1K2uzoEkVdMVXY5BG5rmrzW29WWSuVtl1lVvby8OHjyImJgY1NTUICkpSeHCS908q3RzlcbGxsLPzw/p6ekIDw+HUCjErFmzqNs6yvtomk+Vrnx1bVHG398ftbW1KkMAbXVyuVz88Y9/RGxsLLZu3Qp3d3edk6rpiq7HQIcu89cae75YYl0RDIYhrC9iXREGBWNbX8S6IhgUY1pfpGclGBRjWl+kZyUwBpMG65kzZ+Dv7089v9eE8jNwdev8/f0VXkuXLsX+/fvx+PFjvcvtb3u0IZtcrr9l6rJdY2Mj9u3bh6SkJL3mJzNnTBqspaWleOmll1BaWmrQcjWpbsr0V7GT389Qc6gaUvcz93lY+4PJgrWmpga1tbWIjY3FvXv3UFdXZ7CyNaluyvRXsZPfz1BzqBpK97PUBG0mm7u1tLQUM2bMwGuvvYZx48YpPKbt7e3FhQsXsH79erz55puIiorC7du3ta5Th7zqpqy2ffbZZwofqe3t7Th69CiWL1+OkJAQCIVCSCQSjfsp63MCgQCJiYlUmWKxGIsXL1a4YU6HPrqfPEKhEJs2baIsLEtN0GayuVtLS0uxYMECAKBsJRkXLlzAmTNnsHHjRpw9exbvvPMOpbJpWidDk+omQ15tk4fP56O5uRlpaWk4evQobt68iby8PI37Ketz8+fPx/Xr1ymz7Pr16/Dw8FCpS9fzpCmZW3p6OqqqqpCcnEyJI5aaoM0kw4A7d+6gubmZeiQ5d+5c/Pzzz3j48CGAvln6ZHOzjhw5Er6+vtTHo6Z1MmRJ0t5880288847ePbsmYrqxuPx4OfnB3t7e2pZT08PSktLsW3bNowePRpeXl7YsGGDQq9Et58y06ZNg42NDfWVls8//5xKqqYvmpK5ZWRkID8/HwcOHFD4R7TUBG0mmbu1tLQU3d3dKl5qWVkZNmzYgMePH6udm1XTOhm6qG7K+h0AtLa2oqenR2FfT09PNDc3a9xPGZnQUl5ejgkTJuCbb75RMbB0RVMytzt37mDmzJnIzc3F7t27qeWWmqBt0BVB2bylUVFRWLJkCbU8OzsbpaWl2LBhA0aPHq12blZN6/SB7o/v6uoKa2trNDQ0UEJNQ0MDlbVP3X50+Pn5UdritGnT4ObmpncbAc3J3I4cOYLm5maEh4dj0aJFlHJpqQnaBn0Y8P3336O1tRUBAQGwt7enXgEBAairq8P9+/cRHBysMjdrZmYmAGhcN1Csra3h7+8PgUCApqYmPHz4EJmZmVi4cKFO+8vrcz4+PpBKpTh9+jTtEIAukZu+2NnZYcyYMeBwOEhOToZEIgFguQnaBj0xW2lpKV577TUV19Pb2xuenp4oKyvDxo0bIZVKkZGRgcePH2P8+PHYv38/tm7diqVLl6pdZwi2b98OgUCAyMhI2NjYICAgAFwuF//3f/+ndh+6uV2trKwwb948XL58GXPnzlXZhy6RW25ubr/azOFwcPXqVZw7dw6hoaEWm6CNKIJGJDMzE01NTdi/f/+g1svkBG2aFEHiBhgBiUSCxsZGXLp0SeE7ZYOFvKpXWlpqMQnaSLAagR9//BE8Hg9BQUEq3zMbLCwxQRuzR9xmio+Pj9ovKg4WlpigjfSsBMZAFEGiCDIGoggSRZAxEEWQKIKMgSiCRBFkDEQRJIogYyCKIFEEGQNRBOUgiqB5QxRBOYgiaN4QRVAOogiaN0QRVIIoguYLUQSNCFEE9YcogoMMUQSNAwlWI0AUQePA7BG3mUIUQeNArCtiXTEGYl0R64oxEOuKWFeMgVhXxLpiDMS6ItYVYyDWFbGuGAOxruQg1pV5Q6wrOYh1Zd4Q60oOYl2ZN8S6UoJYV+YLsa6MCLGu9IdYV4MMsa6MAwlWI0CsK+PA7BG3mUKsK+NAelYCYzBZsDY1NSEhIQGrVq3CkiVLsHPnTq3P+DVB1EDtMF0bNEmwdnR0YMeOHbCyskJ8fDxOnDiB6dOnIyYmBvfu3dO6vzolj6iBmmG6NmiSYBWJRJg4cSLi4uIwdepUjB07FqGhoQgMDERBQYHW/dUpeUNdDdSEJWiDJlEEb9y4gbfffltl+caNG7FmzRrqfU9PD0QiEUJCQrBs2TLw+Xx0d3erKHnqGGpqYEVFBcLCwrBo0SJwOBwFAccStMFBVwQ7OjrQ1NREPXsHflP6bG1t4enpSS0vKChAXV0dUlNTwefzUV1dDZFIpKLkKZczFNVAsViM+Ph4BAcHIz8/H+vWrcOxY8fQ1dUFwDK0wUG/ddXT04Pe3l7qDwoAQUFBCtvInp5dunQJKSkpcHV1hZubG3g8HtLS0lRsLRnh4eHU7zY2Npg2bRqtGujl5aVwoSNTAzMzMzF69GgAwIYNG5Ceno6AgAC1+ykjrwbOnDnTYGpgYmIirRp45swZ6h9RKpWCxWKhu7sbDg4OCAoKgr+/P2xtbQFo1gaZYmINuiLo5OQEZ2dn1NTUUDfMZcHZ0dGh8MSnubkZK1asUNhfXn1TZiirgQ4ODhAIBCgqKkJOTg4mTZoELpeL6dOnA7AMbXDQFUGg75sBBQUFKk93KioqFN6z2WwkJiZSQdTe3o6WlpYBtddS1cAXL16gq6sLe/fupTTMmJgYXLx4EcOHD7cIbdAkdwPWr1+Pu3fvIiEhAdXV1Xj06BGKi4tx4cIFBY0tICAAQqEQjY2NqK2txZ49exTGqfJK3kCwFDUwJiYGV65cQUtLC54+fQoWi0WdT0vQBg0arLr2Pmw2GxkZGejt7cXBgwcRExODmpoaJCUlKVx4rV27Fi+99BK2bt2Kbdu2wdPTE5GRkQpKnqHYvn072Gw2IiMjERMTg9dffx1cLlfjPnTtkKmB7e3tatXAFStWKLz6i+ze7Llz52Bra4vY2FhkZ2djzZo1KCkpwcGDB2FnZwcA8PX1VbgrwURtkCiCRsBUaqAmmKINEkVwkDC1GqgJS9AGSbAaEHNQAzXBdG2QOaNrBmAOaqAmmK4Nkp6VwBhIsBIYAwlWAmMgwUpgDGovsK5duzaIzSAQ+qiurla7Tu1DAaO1hkDQDbrYJBAIBAKBQCAQCASCIfh/tjpjXgE/rT8AAAAASUVORK5CYII=;" vertex="1" parent="WIyWlLk6GJQsqaUBKTNV-1">
          <mxGeometry x="282" y="60" width="171" height="337" as="geometry" />
        </mxCell>
        <mxCell id="_GL-RXjxP_ZW7CNbRat9-9" value="" style="shape=image;verticalLabelPosition=bottom;labelBackgroundColor=default;verticalAlign=top;aspect=fixed;imageAspect=0;image=data:image/png,iVBORw0KGgoAAAANSUhEUgAAAMkAAAC/CAYAAABUvfjZAAAABmJLR0QA/wD/AP+gvaeTAAAabUlEQVR4nO3df1RT9/3H8afAAUVAkMFUbAu2OmeP2tZtOtdzKpaCzh9H1GINWn9QgfoDOw9atW6Cfnc8SqUHKIoYpNRScRNkdNVutv44OOqpHtzZtLOt2nJU0IMHRUUTQfL9QxMJJLkkkBDJ+3GOp829N/fz+SR5596bvPIBhBBCCCGEEEII4bR6mFj2W2CFozsihJP4GkhvucDDxEZPATNfeeUVh/RICGfx7bffUltb22a5qSIBICUlxZ79EcLppKSkcOzYsTbL3bqgL0I8UaRIhFAgRSKEAikSIRSYvXB3NI1GQ0FBAceOHaOuro6goCDGjx9PbGwsnp6edm07PDycwsJCBgwYYLS8urqa2NhYjhw5YvH+StuFh4cb3fb19WX06NEkJSXh6+vbsc53kiNHjrBhwwaz69VqNSEhIYrPUeuxtm7jSeQ0RZKZmcnVq1dJTU0lODiYqqoqsrKyuH37NklJSdTU1PD2229TWlqquC9rtrXEx8cHlUrVoX3oZWdn079/f3Q6HdevXyczM5OsrCzWrl3bKfvvqN/97neUlJQADx+/JUuWGG4D+Pn5sXXrVovPkZ5+rN2F05xuHT9+nPj4eAYPHkyfPn0YMWIEy5Yto6KiAgCdTkd9fX279mXNtpb4+fmxaNGiDu8HwN/fn4CAAPr27cuQIUNISEjgxIkTnbLvzuDp6UlAQAABAQH4+/sDGG4HBATg7u6u+Bzp6cfa+t+TymmKxMfHh7KyMu7cuWNYNmLECIqKigBYvHgxADNmzDCsLy8vJy4ujgkTJjBr1izDO5+pbR88eIBarSYmJoapU6eSkZFBU1OTxT5VV1cbnT6Eh4dTXl5OfHw8kydP5uOPPzZ5v5ycHBYtWsStW7fM7tvNzc3oVMvcWODhG8jChQuJiopCpVJx6NAhm8dVX1+PVqu1OG5zlJ4jW3SkP47iNEWybt06vv/+e2bOnMnq1aspLi7m+vXrhvXbtm0DoLi4GIC7d++yYcMGhg4dSmFhIfHx8YZDf+ttAfbu3cvly5fJzs4mIyODs2fPolarre7n4cOH+eCDD1i8eDH5+fncvn3baP2OHTuorKwkPT0dPz8/w3KNRoNGo+HevXtcvnyZvLw8IiMjFcei0WhITU0lOjqaoqIi5s6dy5YtWwwvrPaO67vvvmPz5s3Mnz+fhoYGq8cNys9R67G2/mfKhQsXmD17Njt27ODq1as29cvenOaaZNiwYezcuZPz589z8uRJvvjiC3Jycli7dq3Ji0FPT0927dpFcHAwXl5e9OvXD6DNi1bv4MGDZGZmEhAQQFBQEAkJCWzfvt3qfk6bNo3evXsTFRVFWlqaUXu5ubkUFRWxe/fuNhfkcXFxRre9vb1ZuXKl4lj8/f1xc3OjqakJb29vJk6cSHh4uOFC2dK4GhsbOXr0KPv376epqYmpU6eyfPlyevbsafW4of3PUeux6pm6cH/ppZfYuXMnf//731m+fDnPPfcc0dHRjBo1ih49TEULHc8pikSr1VJRUcG4ceMYPHgwgwcPRqVSUVBQQE5Ojski8fDw4Nq1a2RkZHDv3j1CQ0MttlFbW8v06dONlvn4+Fjd18DAQADc3d3brDt37hwvvvgihYWFvPvuu0brWn56ptVq2bdvHytWrGDPnj0Wx+Lt7U1WVhbFxcUUFBQwZMgQYmNjGTlypMVxVVZW8n//93+GT9GGDh1q9VhbsuY5MvVJoSWBgYHMmzePOXPmcPz4cXbv3k1mZiZbt24lKCioQ/3uDE5RJM3NzWzcuJFnnnmGQYMGGZaPGjWKsrIyk/dpampi3bp1pKSkMGbMGBobGzlw4IDZNgIDA0lLSzM8eQ0NDdTV1VndVzc382eomzZtora2lri4OKKionjhhRdMbufl5UV0dDRqtZqbN2/i4+Njdiz3799Hq9WyZs0adDodR44cITk5mdLSUnr37m12XI2NjYSGhnLmzBmeffZZBg4caNObgp4tz5G1bty4QVVVFbW1tfzyl7/Ey8urU/bbUU5xTdKrVy8iIyNJTU3lm2++4cqVK5SXl7Nt2zYiIiKMtr13757hv/fv38fd3R2tVkt+fj7w8Py+9bYAERER5OTkUFNTQ1VVleGcWu/mzZvcuHHD6J+1vLy8GDhwICqVivT0dBobG03uv6amhvz8fIKCgujTp4/iWJKTkzl06BB1dXXU19fj5uaGh4eHxXENGjSI9PR0Nm7cyKVLl5g7dy7vv/8+P/zwg9XjAuueI1OPpbnHU6fTcerUKf70pz+xePFimpubycrK4o9//KPRNV1XMnXSFwPsdfQXP83NzRQUFHD8+HGuXLlCYGAg48ePZ968eXh4eNDc3ExSUhIXL140vMt++umn7NmzB19fX1QqFf/+97+prKxk3759bbZtbGwkNzeXw4cP09jYyNixY3nnnXfo2bOn2S/ACgsLjb4kbP2lo/42YLRdY2MjcXFxvPrqq8ybN6/N/t3c3AgLC2PFihUMGzbM4lhKSkr46quvyMvL4/r164SEhLBo0SLGjh2rOK6WGhoaOHjwIKWlpaSnpxMcHGz2uTD35ajSc6R/TMwx9ZoqLy9n7969REdH88orrxj20xUepYD3Aa+3XO40RSIcQ6fTodPpLJ42OtKDBw9MXt91BXNF4hTXJMJxevTo4TSfGoHpD0CcjXO8nQjhxKRIhFAgRSKEAikSIRRIkQihQIpECAVmPwI+evSoA7shRNczNecWWPgy0a69EcJ5tf/LRPnGXbgamZxOCBtJkQihQIpECAVSJEIokCIRQoEUiRAKpEiEUCBFIoQCKRIhFEiRCKFAikQIBVIkQiiQIhFCgRSJEAqkSIRQIEUihAIpEiEUSJEIoUCKRAgFUiRCKJAiEUKBFIkQCqRIhFBgdt4tS3/WSwhXYrZI1q9f78h+CNHl/vrXv/Ltt9+2WW62SMaNG2fP/gjhdMzNfy3XJEIokCIRQoEUiRAKpEiEUNAlf8ddo9FQUFDAsWPHqKurIygoiPHjxxMbG4unp6dd2w4PD6ewsJABAwYYLa+uriY2NlbxT04obdf6o3NfX19Gjx5NUlISvr6+Heu8gpqaGrKysggMDCQyMpLhw4fbtT1X0SVHkszMTL777jtSU1PZu3cvK1eupKKigpycHODhkz1t2rR27cuabS3x8fFBpVJ1eD8A2dnZlJSUUFxczPvvv2948dpbRkYGU6ZMYcaMGWzduhWdTmf3Nl1BlxTJ8ePHiY+PZ/DgwfTp04cRI0awbNkyKioqANDpdNTX17drX9Zsa4mfnx+LFi3q8H4A/P39CQgIoG/fvgwZMoSEhAROnDjRKfs25+LFi1RXVzNmzBhCQ0MJCgoyPJ6iYzq1SJKSktq1nY+PD2VlZdy5c8ewbMSIERQVFQGwePFiAGbMmGFYX15eTlxcHBMmTGDWrFmUlJSY3fbBgweo1WpiYmKYOnUqGRkZNDU1WexTdXW10alSeHg45eXlxMfHM3nyZD7++GOT98vJyWHRokXcunXL7L7d3NyMTrXMjQUevoEsXLiQqKgoVCoVhw4date4vvzyS8aOHUuPHg//wt/LL79sdF9hu04tkv/+97/t2m7dunV8//33zJw5k9WrV1NcXMz169cN67dt2wZAcXExAHfv3mXDhg0MHTqUwsJC4uPjycrK4vbt2222Bdi7dy+XL18mOzubjIwMzp49i1qttno8hw8f5oMPPmDx4sXk5+dz+/Zto/U7duygsrKS9PR0/Pz8DMs1Gg0ajYZ79+5x+fJl8vLyiIyMVByLRqMhNTWV6OhoioqKmDt3Llu2bEGr1SqOq7KykoEDBxr68NRTT1FZWWn1mEVbXXLhPmzYMHbu3Mn58+c5efIkX3zxBTk5Oaxdu9ZkZszT05Ndu3YRHByMl5cX/fr1A2jzotU7ePAgmZmZBAQEEBQUREJCAtu3b7e6n9OmTaN3795ERUWRlpZm1F5ubi5FRUXs3r27zQV5XFyc0W1vb29WrlypOBZ/f3/c3NxoamrC29ubiRMnEh4ebvgww9K4qqureeqppwxtDhw4kNu3b9PQ0EDv3r2tHrt4rMNFkpSUZHQE0b/Ihw8fTmZmZpvttVotFRUVjBs3jsGDBzN48GBUKhUFBQXk5OSYLBIPDw+uXbtGRkYG9+7dIzQ01GKfamtrmT59utEyHx8fq8cWGBgIgLu7e5t1586d48UXX6SwsJB3333XaF3LT8+0Wi379u1jxYoV7Nmzx+JYvL29ycrKori4mIKCAoYMGUJsbCwjR45UHJdGozEao/7IdvfuXSmSDupwkbQshPDwcMWPUJubm9m4cSPPPPMMgwYNMiwfNWoUZWVlJu/T1NTEunXrSElJYcyYMTQ2NnLgwAGzbQQGBpKWlmZ4oTY0NFBXV2fNsICH1xLmbNq0idraWuLi4oiKiuKFF14wuZ2XlxfR0dGo1Wpu3ryJj4+P2bHcv38frVbLmjVr0Ol0HDlyhOTkZEpLS+ndu7fFcQUEBFBdXc2zzz4LPDyy9OjRg4CAAKvHLYw5/NOtXr16ERkZSWpqKt988w1XrlyhvLycbdu2ERERYbTtvXv3DP+9f/8+7u7uaLVa8vPzgYfvkq23BYiIiCAnJ4eamhqqqqoM1z16N2/e5MaNG0b/rOXl5cXAgQNRqVSkp6fT2Nhocv81NTXk5+cTFBREnz59FMeSnJzMoUOHqKuro76+Hjc3Nzw8PBTH9Ytf/IIrV64Y+nDp0iXCwsIM9xW269RH0NRpiSmrVq2ioKCAHTt2cOXKFQIDAxk/fjzz5s0DoF+/fjz//PPMmDGDAwcO4Ovry1tvvcWGDRvw9fVFpVLx6quvsmrVKvbt22e0LcCcOXPIzc1l6dKlNDY2MnbsWBITEw3tL1mypE2fCgsLbRqzSqXiq6++4tNPPzX0v+X+3dzcCAsLIyUlhR49elgcS0lJCatWrSIvL4+0tDRCQkJYv349Xl5eiuMaPXo0p0+fNrR74cIFxowZY9OYhLEeJpbFAHuVTpuEc9FoNMTGxpKXl4ePjw+xsbFkZGQYPhgQylJSUjh27Ng+4PWWy+VY3E307NmTmJgYSktLGTBgAL/97W+lQDqJBBy7kddffx1/f38ePHhAfHx8V3en25AjSTfi5ubWKTk2YUxSwI9ICliYIyngRyQFLMyRFPAjkgIW5kgK+BFJAQtzJAVsgaSABUgK2CJJAQuQFLBFkgIWIClgiyQFLEBSwJICFookBfyIpICFOZIC7iYkBdxxkgLu5iQFbD+SAu5GJAVsH3Ik6UYkBWwfciQRQoFE5R+RqLwwR6Lyj0hUXpgjUflHJCovzJGo/CMSlRfmSFTeAonKC5CovEUSlRcgUXmLJCovQKLyFklUXoBE5SUqLxRJVP4RicoLcyQq301IVL7jJCrfzUlU3n4k4NiNSFTePuRI0o1IVN4+5EgihAKnPJJIlN4+JEpvG6c8kkiU3j4kSm8bpywSidJ3PonS265LovJKJEovUXpn0iVR+V27djF58mRSU1P5z3/+w8WLF41exBKllyi9M3H4hbtOp+N///sfBQUFVFZWolaruXDhgtH5vkTpJUrvTBwele/RowdpaWkAvPbaa7z22mtG6yVKL1F6Z+PwqLwSidJLlN7ZON2nWxKllyi9s+mSqLwSidJLlN6ZSFTeRUiUXplE5V2cROlt53TXJMJ+JEpvGzmSuBCJ0tum2x5J9DGS1nESU9vY04cffsiUKVPs2kZLnTmmmpoa1q5dy9atW9udpuiOum2R6LVM77ZOBHdmsteUW7duUVJSQl5ent3asOeYJDX8ULcvkpbp3daJ4M5M9ppy584ddDodwcHBdmvDXmOS1PBjDk8BNzc389FHHzFr1iyio6PZtGkTDQ0NhvUNDQ1s3ryZadOmERMTQ05OjuGLOHPJW51Ox/79+5k/fz6///3vWbJkCWfOnAGMTz9aJ4Jbn5rY0rYlSu21N1ls6TGz15gkNfyYw1PA+/bto7y8nM2bN5Oens6lS5f45JNPDOszMjKora1l+/btbN68mZMnT7Jnzx7DelPJ2/3797N7927eeustPvnkE958802TqV5TieCWbGnbEqX2TDHVhqXHzF5jktTwYw4/3fr8889ZuHAhoaGhhIWFsXr1ap5//nng4e8hDh8+zLJly+jfvz9hYWEsWLDA6B2sZfIWHqZj//a3v5GYmMjLL79M3759GT16tNWnHLa23dlMtWHpMbPXmCylhl2Nw1PA165dIyQkxHD76aef5umnnwbgxo0bPHjwwOj35SEhIdTW1hpum0reXrt2jeeee86oHX2Qr71sbbsjTF0ImxufucfMko6MSVLDj3X4SJKZmcmRI0cM6V/9/5sqEHj4pFy9etVw+8KFC4ZcVEBAAO7u7lRXVxvWV1dX87Of/exxh00kb/v378/58+eNlv34449WjcPWtm3R3NwMYPRDMkttWHrMLOnImPSp4Zb3c9XUsMNPtyIjI1Gr1fz4449UVVWRkZFheAG4u7sTHh5OVlYWV69e5aeffiIvL6/Nb05ai46OJicnh4qKCm7cuMHJkyctfuzaMhGsZ2vb1tC/A//jH//g7t277b5WsfSY6XX2mCQ1/JjDU8CxsbFoNBpWrVqFRqNh9OjRJCQkGNYvX76crKwsEhMT8fDwICIigtjYWIv7nDJlCs3NzeTm5nLt2jVCQ0N57733WLp0qdF2rdPDrdnStjX69OnD/Pnzyc7OZs+ePSxZsoTy8nLF+1l6zOw1JkkNPyYpYGGSK6aGJQUsrCKp4cekSDpIKSf1JB+RX3/9dcrKylw+NSxF0kFPchEokdTwQ90+uyVERz2xRSIxd8sk5t55npgikZi7dSTm3nmemCKRmHv7Scy9c3XJhNnmJoTuiki4ORJzF3oOj8pbmhC6KyLh5kjMXeg5/HRLPyF0UlISgYGBRhNCd0UkvDNJzL17cnhU3tKE0F0RCbeVxNxdh8MnzLY0ubU+Eq4vnAsXLnDixAnFQF7LSPgzzzwD2Dfm7ubmZnXM3ZFjksmxO5fDT7csTQjdFZHw9pKYu+tyeFTe0oTQf/nLXxweCW8vibm7LonKd0OuGHPvDBKVdyESc+9cLl0kEnMX7eHSRfIkF4ESibl3nicmuyVEV3GJInFErL4jZAb8jrPnTwMcXiSt4+GOYGlmeWciM+Dbzp4/DXB4kbSOhzuCpZnlnYnMgG8be/80wOFReXPx8NOnT/PGG29w5swZs1F6sBwRP378OAsXLiQqKgqVSmUIA1qaWd4SmQFffhoAXRCVNxcP37t3L4mJiQwYMMBslF7PVERco9GQmppKdHQ0RUVFzJ07ly1btqDVatvVvikyA75lrvLTAKe5cE9ISGDcuHH4+fmZjdLrmYqI64OHTU1NeHt7M3HiRD777DM8PT1t7pPMgG+Zq/w0wOFReXP08XFLUXo9UxFxb29vsrKyKC4upqCggCFDhhAbG8vIkSNtGRYgM+C35Mo/DXD4rPLm6Aeuj9LPnDmT7Oxs3nnnnbadNhERv3//PlqtljVr1rB//34mTJhAcnJyh95NZAZ8mQEfuvB0y1Q8XL/cXJReSXJyMocOHaKuro76+nrc3NzMxsPNtd+SzIAvPw2ATi6S9hzaW8bDTWkZpV+wYAEDBgwwROkt8fT0ZNWqVeTn5zN79mzKyspYv349Xl5eVrXfUmxsLL/+9a9ZtWoVS5cuJTg4uM0M+IGBgSQmJpKcnMxvfvObds2A/+abb5Kbm4tKpWLXrl289957bbZT6qctbVuj5U8DEhMTmTRpUrvuZ+kxs9eYRo8ebXR07uyfBkhUXjzxOuunARKVF92WvX8a4PJF0p3j8q1157Ha86cBLl8kT/ILw1rdeaz2/GmAyxeJaJ+amhqysrIIDAwkMjKS4cOHd3WXHMYlUsCd1aY1+3HmtLEtXHkCbpdIAXdWm9bsx5nTxtZy9Qm4uzwFDOYn0DaVEP78889ZsGABkyZN4g9/+ANff/214YL0wYMHqNVqYmJimDp1KhkZGTQ1NVmV/AXzaWJr+m5qW3P9U2LpfubSse1J8f7zn/9k4cKFTJs2jcLCQr788ktUKhWTJk1i165dhm1dfQLuLk8BW5pAW0+fED5//jwFBQUsWbKEPXv2MHfuXMP+9NtdvnyZ7OxsMjIyOHv2LGq12qqEq6U0sTV9N9Wmuf4pUbqftYlfvePHj5OdnU1CQgJqtZqjR4+Sl5fH22+/ze7du2UC7ke6PAVsaQJtPX1C+LPPPiMhIYFf/epX+Pn58dJLL7FgwQLDdgcPHmT58uUEBQURFhZGQkICp06dsqo/1qSJ29P3lmztn9L9bE38zpw5k169ehEZGQlATEwMvXr1YuLEiUb7cfUJuLs8Bdye1K8+RVpdXU1YWJjRupbb19bWMn36dKP1LdOh7WFNmrg9fW/J1v4p3a89iV9TF9r68KD+fq1v67n6BNwOnzC7NUsTaOvpn7R+/frx008/MWjQIMO6qqoqw/8HBgaSlpZmiFs3NDRQV1dnVX9apol1Oh1HjhwhOTmZ0tJSm/rekq39U7qfpcSvpQm+28vVJ+Du8hSwNanf6dOns2PHDk6dOsXt27c5ffo0H330kWF9REQEOTk51NTUUFVVxerVq42uCdqT/AXlNLE1fW/ZplL/zLHlframeE1x9Qm4uzwFbE3qd8qUKcyZM4cPP/yQN954w3CxrH9BzJkzh5///OcsXbqUZcuWERISQmJiolXJX0tpYmv6bqpNc/1TYsv9bE3xmmLvlK2ze6JSwCdOnCA4ONjodOtf//oXO3fuNDqiiM7lKhNwm0sBd/mnW9a4cOECf/7zn/nhhx/QarWcO3cOtVpt+HRG2EfLlO3hw4ddbgLuJ+qkcvbs2Wi1WtatW0d9fT39+vUjIiKCmJgYq/bjbGlYZ+uPKa48AfcTdbolhD11i9MtIbqCFIkQCqRIhFAgRSKEAikSIRSY/QjYmf/ojRCOZOoj4IHAWEd3RAgncQn4uqs7IYQQQgghhBBCiHb6f7AgGp8lKgy/AAAAAElFTkSuQmCC;" vertex="1" parent="WIyWlLk6GJQsqaUBKTNV-1">
          <mxGeometry x="560" y="60" width="201" height="191" as="geometry" />
        </mxCell>
        <mxCell id="_GL-RXjxP_ZW7CNbRat9-10" value="" style="shape=image;verticalLabelPosition=bottom;labelBackgroundColor=default;verticalAlign=top;aspect=fixed;imageAspect=0;image=data:image/png,iVBORw0KGgoAAAANSUhEUgAAAMEAAAEICAYAAADm0pBUAAAABmJLR0QA/wD/AP+gvaeTAAAgAElEQVR4nO2df1CUdf7AX6BfUASE9iAVQ03xvLywybnBzFSIsJ9eqGmChvkDVNQmh8jMUvTMKcJaGAwURFJLCtC8S72zAR0cpHJ0+mF3lmgkP8cSTYVFEL5/ePscC/sTF3bXfb9mdmSf57OfH+vz3s/neZ7XvhcEQRAEQRAEQRAEwYlx0bPtIWBlT3dEEHqI48Dm9ht66yl0DzBj0qRJPdIjQegpfvjhBy5evNhpu74gAGDdunXd2R9B6HHWrVvH0aNHO213tUFfBMGukCAQnB4JAsHpkSAQnB6DJ8aWoNFoyM3N5ejRo1y6dAk/Pz/CwsKIjo7Gzc3NGk0YJDQ0lMGDB7Nz585O+1atWsWXX37J7t27GTRo0G21oa+O6upqoqOjKS4u7nLd2vrb4+XlRUhICCtWrMDLy+u26rYWxcXFrF+/3uD+rKwsAgICTB4HHcfasQ1bYJUgSE1Npba2lqSkJPz9/amoqCAtLY2rV6+yYsUKampqWLJkCfv27TNZlyVltdTW1lJeXs7w4cOVbdeuXeObb77p0njMxdPTk6ioKKvUlZ6ezsCBA2lra+PXX38lNTWVtLQ0Vq9ebZX6b5eHH36YwsJC4Nb/UXx8vPIcwNvbm5SUFKPHgRbtWO0FqyyHjh07RmxsLEFBQfTv35/g4GCWL19OaWkpAG1tbVy5csWsuiwpq2Xs2LEcOXJEZ1tpaSljxoyxqB5L8fb2ZtGiRVapy8fHB19fX+666y5GjhxJXFwcZWVlVqnbGri5ueHr64uvry8+Pj4AynNfX1969epl8jjQoh1rx4etsEoQeHp6sn//fq5du6ZsCw4OZs+ePQAsXboUgOnTpyv7S0pKWLBgAY8//jizZs1SPlX0lb158yZZWVnMnDmTqVOnolaraWlpUfZPmjSpUxAcPXqUjjf8DLXZ2trKjh07mDVrFpGRkWzatInr16/rvPbkyZPExMTw9NNP8+GHHwK3lkPtp/fQ0FBKSkqIjY3VKWfOGDri6uqqsxQy1He49SE0f/58pkyZQlRUFIcPH+5yu1euXKGpqcngfmOYOg66wu30x1ysEgRr1qzhxx9/ZMaMGaxatYqCggJ+/fVXZf+WLVsAKCgoAKChoYH169czatQodu/eTWxsrDJtdiwLkJeXR2VlJenp6ajVak6fPk1WVpay//7776exsZHy8nKl/lOnTjFhwgSljLE28/PzKSkp4e2332bz5s1cuHCBXbt26Yzx+PHjZGZm8uqrr5KTk8Pvv/+u970oKirivffeY+nSpeTk5HD16lWzxqDRaNBoNDQ2NlJZWUl2djYREREm+67RaEhKSiIyMpI9e/Ywd+5c3nnnHeXAMdWuljNnzvD2228zb968Th8A5mLqOOg41o4PfZSXlzN79mwyMzOpra3tUr9MYZVzgvvuu49t27Zx9uxZvv76aw4dOkRGRgarV6/WeyLk5ubG9u3b8ff3x93dnQEDBgAoB0xHDh48SGpqKr6+vvj5+REXF8cHH3yg7Hd1dWXixIkUFxczfPhwjh8/zujRo3U+SY21+fnnnxMbG8vQoUOBWyfUv/zyi04fZs2aRZ8+fZTAav9p155nn32Wfv36MWXKFJKTk7l69SpeXl4mx7BgwQKdejw8PHjllVdM9t3HxwdXV1daWlrw8PDgiSeeIDQ0VDkRNdZuc3MzR44cYe/evbS0tDB16lReeukl+vTpo3dspjD3OOg4Vi36TowffPBBtm3bxj/+8Q9eeuklRowYQWRkJGPHjsXFRZ/6Zjm3HQRNTU2UlpYyefJkgoKCCAoKIioqitzcXDIyMvQGQe/evamrq0OtVtPY2KgcfIa4ePEi06ZN09nm6emp83zy5MkkJyezcOFCvUshY23W1dUREBCgPA8MDCQwMFDn9SqVCsDkG68t16tXL4vG0P7qU1NTE/n5+axcuZKPP/7YaN89PDxIS0ujoKCA3NxcRo4cSXR0tHI+ZKjdkydP8re//U25CjVq1Cij4zKFJceBpVfrVCoVMTExzJkzh2PHjrFz505SU1NJSUnBz8/vtvoNVgiC1tZWNmzYwJAhQ7j33nuV7WPHjmX//v16X9PS0sKaNWtYt24d48aNo7m5mQMHDhhsQ6VSkZycrLxx169f59KlSzpltEui7777jhMnTrBypa4Ia6xNlUpFbW2tcnCVl5dTVlZGdHS08npzP3VcXfWvMM0ZgxZ3d3ciIyPJysri8uXLeHp6Guz7jRs3aGpq4rXXXqOtrY3i4mISEhLYt28f/fr1M9huc3MzQ4cO5fvvv2f48OEMHjy40weLJXTlOLCU+vp6KioquHjxIn/6059wd3e3Sr23fU7Qt29fIiIiSEpK4quvvqKqqoqSkhK2bNlCeHi4TtnGxkbl3xs3btCrVy+amprIyckBbq19O5YFCA8PJyMjg5qaGioqKpT1ZntcXFx45JFHSElJYdSoUcoVjPb1GWozIiKCrKwszp8/T0VFBWq12urrT1NjuHz5MvX19dTX11NTU0NOTg5+fn7079/f5PuVkJDA4cOHuXTpEleuXMHV1ZXevXsbbffee+9l8+bNbNiwgQsXLjB37lzeffddfvrppy6Nz5LjoP1Y2z/00dbWxokTJ3jzzTdZunQpra2tpKWl8cYbb+Dt7d2lvnbEKucEiYmJ5ObmkpmZSVVVFSqVirCwMGJiYgAYMGAAo0ePZvr06Rw4cAAvLy8WLlzI+vXr8fLyIioqikcffZTExETy8/N1ygLMmTOHrVu3smzZMpqbmxk/fjyLFy/u1I/Q0FD27dtHZGRkp33G2vzkk0/QaDQkJiai0WgICQkhLi7OGm+NgqkxxMfHK3+7uroybNgw1q1bh4uLi9G+FxYWkpiYSHZ2NsnJyQQEBLB27VrlU9JUu0OHDuXll18mNjaWgwcPkpSUxObNm/H397d4jKaOA31jbY++c4Jjx46Rl5dHZGQkb775phLc1kTfHD8TyLPV3TvBtrS1tdHW1mZwWdfT3Lx5s9P5VVf5r0qdDzzXfrv1w0pwaFxcXKx21cUaWCsAjGEf4S4INkSCQHB6JAgEp0eCQHB6JAgEp0eCQHB6DF4i7agmC4Kjoy/nEBi5WdatvREE22H+zTK5YyzcaUjyLUEwgASB4PRIEAhOjwSB4PRIEAhOjwSB4PRIEAhOjwSB4PRIEAhOjwSB4PRIEAhOjwSB4PRIEAhOjwSB4PRIEAhOjwSB4PRIEAhOjwSB4PRIEAhOjwSB4PRIEAhOjwSB4PRIEAhOj8G8Q/p+dVIQ7kQMBsHatWt7sh+C0O18+umn/PDDD522GwyCyZMnd2d/BKHHMZRfV84JBKdHgkBweiQIBKdHgkBwemzyO8YajYbc3FyOHj3KpUuX8PPzIywsjOjoaNzc3Lq17dDQUAYPHszOnTs77Vu1ahVffvklu3fvZtCgQbfVhr46qquriY6Ovu209x0vX3t5eRESEsKKFSvw8vK6rbpNUVNTQ1paGiqVioiICO6///5uba8nsMlMkJqaypkzZ0hKSiIvL49XXnmF0tJSMjIygFtv9LPPPmtWXZaU1VJbW0t5ebnOtmvXrvHNN99YVI+leHp6EhUVZZW60tPTKSwspKCggHfffVc5OLsbtVrNM888w/Tp00lJSaGtra3b2+xubBIEx44dIzY2lqCgIPr3709wcDDLly+ntLQUgLa2Nq5cuWJWXZaU1TJ27NhOl8tKS0sZM2aMRfVYire3N4sWLbJKXT4+Pvj6+nLXXXcxcuRI4uLiKCsrs0rdhjh37hzV1dWMGzeOoUOH4ufnp/yfOTJWDYIVK1aYVc7T05P9+/dz7do1ZVtwcDB79uwBYOnSpQBMnz5d2V9SUsKCBQt4/PHHmTVrFoWFhQbL3rx5k6ysLGbOnMnUqVNRq9W0tLQo+ydNmtQpCI4ePcqkSZN0thlqs7W1lR07djBr1iwiIyPZtGkT169f13ntyZMniYmJ4emnn+bDDz8Ebi2H2i9lQkNDKSkpITY2VqecOWPoiKurq85SyFDf4daH0Pz585kyZQpRUVEcPnzYrHa/+OILxo8fj4vLrV/5mjBhgs5rHRWrBsF3331nVrk1a9bw448/MmPGDFatWkVBQQG//vqrsn/Lli0AFBQUANDQ0MD69esZNWoUu3fvJjY2lrS0NK5evdqpLEBeXh6VlZWkp6ejVqs5ffo0WVlZyv7777+fxsZGZUnU0NDAqVOnmDBhglLGWJv5+fmUlJTw9ttvs3nzZi5cuMCuXbt0xnj8+HEyMzN59dVXycnJ4ffff9f7XhQVFfHee++xdOlScnJyuHr1qllj0Gg0aDQaGhsbqaysJDs7m4iICJN912g0JCUlERkZyZ49e5g7dy7vvPMOTU1NJts9efIkgwcPVvpwzz33cPLkSdP/4XaOTU6M77vvPrZt28bZs2f5+uuvOXToEBkZGaxevVqvs+Tm5sb27dvx9/fH3d2dAQMGACgHTEcOHjxIamoqvr6++Pn5ERcXxwcffKDsd3V1ZeLEiRQXFzN8+HCOHz/O6NGjdT5JjbX5+eefExsby9ChQ4FbJ9S//PKLTh9mzZpFnz59lMBqP+u159lnn6Vfv35MmTKF5ORkrl69ipeXl8kxLFiwQKceDw8PXnnlFZN99/HxwdXVlZaWFjw8PHjiiScIDQ1VLkgYa7e6upp77rlHaXPw4MFcvXqV69ev069fP73jcwRuOwhWrFihMwNoD+L777+f1NTUTuWbmpooLS1l8uTJBAUFERQURFRUFLm5uWRkZOgNgt69e1NXV4daraaxsVE5+Axx8eJFpk2bprPN09NT5/nkyZNJTk5m4cKFepdCxtqsq6sjICBAeR4YGEhgYKDO61UqFYCydDCEtlyvXr0sGkP7q09NTU3k5+ezcuVKPv74Y6N99/DwIC0tjYKCAnJzcxk5ciTR0dHK+ZCxdjUajU4fvL29gVszj1MHQfsDPTQ01OTlv9bWVjZs2MCQIUO49957le1jx45l//79el/T0tLCmjVrWLduHePGjaO5uZkDBw4YbEOlUpGcnKwcJNevX+fSpUs6ZbRLou+++44TJ06wcuVKs9tUqVTU1tYqB1d5eTllZWVER0crrzd18GtxddW/IjVnDFrc3d2JjIwkKyuLy5cv4+npabDvN27coKmpiddee422tjaKi4tJSEhg37599OvXz2i7vr6+VFdXM3z4cODWzODi4oKvr69ZY7VXevzqUN++fYmIiCApKYmvvvqKqqoqSkpK2LJlC+Hh4TplGxsblX9v3LhBr169aGpqIicnB7j1CdSxLEB4eDgZGRnU1NRQUVGhnHe0x8XFhUceeYSUlBRGjRqFj49Pp7YNtRkREUFWVhbnz5+noqICtVpNbW2t9d4kM8Zw+fJl6uvrqa+vp6amhpycHPz8/Ojfv7/J9yshIYHDhw9z6dIlrly5gqurK7179zbZ7h//+EeqqqqUPly4cIFhw4Ypr3VUrNr7jlO6IRITE8nNzSUzM5OqqipUKhVhYWHExMQAMGDAAEaPHs306dM5cOAAXl5eLFy4kPXr1+Pl5UVUVBSPPvooiYmJ5Ofn65QFmDNnDlu3bmXZsmU0Nzczfvx4Fi9e3KkfoaGh7Nu3j8jIyE77jLX5ySefoNFoSExMRKPREBISQlxc3G28c50xNYb4+Hjlb1dXV4YNG8a6detwcXEx2vfCwkISExPJzs4mOTmZgIAA1q5di7u7u8l2Q0JCOHXqlNJueXk548aNs+q4bYHBX7SXH/MWOqLRaIiOjiY7OxtPT0+io6NRq9XKibe9898f8zb/F+0FoSN9+vRh5syZ7Nu3j0GDBvHQQw85TAAYQwQ6wSKee+45fHx8uHnzJrGxsbbujlWQmUCwCFdXV4tdLXvHLoNALFOxTHsSu1wOiWV6+4hlaj52GQRimd4+Ypmaj00sUlOIZXoLsUx7BptYpNu3b+fpp58mKSmJb7/9lnPnzukcpGKZ/g+xTLufHj8xbmtr49///je5ubmcPHmSrKwsysvLddbCYpn+D7FMu58et0hdXFxITk4G4LHHHuOxxx7T2S+WKXrLiWXaffS4RWoKsUx1Ecu0+7G7q0NimZqHWKbWwyYWqSnEMjWNWKbWQyxSwWrYu2UqFqnQ7TiqZWp35wSCY+OIlqnMBIJVcUTLVGYCwemxSRCEhoZSXV1tslxHl0YfNTU1rF69mpSUFLO1DUFoj13PBO3VYkNKtCOqu4J9YddB0F4t1qdEO6q6K9gXdqFSG1KG2y+H9CnRjqruCvaFTVRqfRhShrXoU6IdVd0V7Au7WQ61V4bBsAbdHmPqriCYS4+r1IYwpAwbw1HVXcG+sBuV2pAybAxHVXcF+8JulkPm0l6JdlR1V7AvrBoE1lKp9dFen9YSEhLC2bNnleeOou4K9oVDq9T2ru4K9sUdqVI7qror2BcOd07QEUdUdwX7wqFnAnBMdVewLxx+JhCE28UmM4G1s04byvLcEVNZn22ZDRscM6PznYBNZgJTWaeN0ZUs01pMqdm2zoYtWrhtsEkQmMo6bYyuZJnWYkrNtmU2bNHCbYdNVGpTWafBcPZjfUp1R7qqZtsyG7Zo4bbDJiq1qazTYDj7sT6lWh9dUbNtmQ1btHDbYZPlkDbrdFpaGsHBwRw6dIjZs2frnLAePHiQl156CT8/P4YNG0ZcXBwnTpwwu42uqNnm9Ks92uzOK1asQKVSmZUN29CYRAu3HT2uUpubddqczNHGsFTNtnU2bNHCbUePq9TmZp22JOuyPixVs22dDVu0cNvR48shc7NOm8q63F6pvh209dg6G7Zo4bbDJip1YmIikydPJjMzkwULFpCRkcHYsWN1frRuzpw53H333Sxbtozly5cTEBDA4sWL9SrVXUFfPab61fE17bM7v/jiiwwaNEjJ7qyvfkNjAtHCbYlDq9R3EqKFdz93pEp9JyFauO0Qgc6OEC3cNshMYEeIFm4b7Cohr7mJevVhTvLeriAJf+98nGo5JGanoA+nCgIxOwV92EVCXn1olzdlZWXMmzePyMhI1Go1zc3NtLW1sXfvXubNm8eTTz5JfHw833//vfJaMTsFS7CbhLyGKCwsZOPGjWzatIkTJ07w0UcfsXfvXnbu3MnChQvZtWsXL7zwgmJjitkpWIrdXx1asmQJAQEBACxYsIDs7GxcXV1ZvHgxEyZMAG7dbV20aBFvvfWWYnb6+/vj7u5ultmZmpqKr68vfn5+xMXF8cEHHwDGzU6R2u4cbJaQ19wTzPafxIGBgVy8eBGAESNG6JTTimdidgqWYpOEvHfffTdVVVXKJzxARUUFvXv3xt/fX6dsZWUlw4YNU/5WqVS4ublx9uxZHdvz/PnzgJidguXY5OrQ448/TmpqKmVlZdTW1nLq1Ck2btxIREREJ2syLS2N6upqzpw5w7Zt2wgPDycyMpKMjAxKS0upr6/n66+/Jjs7GxCzU7Acq/5vmmuRvvDCC/Tt25cPPviAuro6VCoVjz76KNHR0Z3KPvbYYyQkJNDY2EhYWBhz5syhd+/etLa2snXrVurq6hg6dCivv/46y5Yt0zE7vby8iIqKUszO/Px8xezUzg5z5sxh69atLFu2jObmZsaPH69jdp46dUrpi5iddyZ2a5GayhHUE4jZeWchFmkXELPTObDbO8YeHh5MnTrV1t0Qs9MJsNuZwMfHh5dfftnW3RCz0wmw25lAEHoKm80EtbW1bNu2jW+++QaNRsPIkSOZP38+f/7zn7tcZ319PRkZGXz33XdcvnyZe+65h+joaCZOnNil+myZoNeYFt7TFwvu9ETBNgmChoYGXn75ZUaPHk1SUhJeXl4UFxeTkJBAWloaQUFBRl9fU1PDkiVL2Ldvn7Lt2rVrLFq0iHHjxvHmm2/St29fvvrqKzZu3Ii7uzshISEW9zM1NZXa2lqSkpLw9/enoqJC8ZBWrFihtx+W9NkU6enpDBw40OJ+Wxu1Ws1f//pXBg4cyLp168jJyVGkwjsBmyyHsrKyGDFiBGvWrGH06NEEBgYSExNDREQEeXl5Jl+vT4nesWMHY8aMISEhgVGjRjFkyBCee+45pk2bxqefftqlftoyQS/cOi/y9fXt9OhJnEEnt4lKXVZWxvPPP99p+8KFC5k9e7by3JKkvEeOHNGbhiUmJobExESg87fP2j/X/n3q1Cmef/55vv/+e5sm6DUHcxIP63seGhrKv/71L+bPn8+zzz7L7t27+eKLL4iKiuKpp55i+/btSlln0Ml7XKVuaGigtraWIUOGKNs0Gg0ajQY3Nzcdn8jcpLwNDQ389ttvBAYGdmqvT58+nXwkY+Tl5bF48WJlprJVgt7270vHR3tMJR42xLFjx0hPTycuLo6srCyOHDlCdnY2S5YsYefOnUo9zqCT9/hy6ObNm7S1tdHa2qpse+KJJ3QeWsxNynvz5k0Aq6xT4+LimDx5Mn369LFpgl64pY53fG/avz/QtcTDADNmzFCy7gHMnDmTvn37KvVr63GGRME9rlJ7eXnh7e3NuXPneOCBB4D/Xe1oaGjgqaeeUsqam5TXy8sLlUrFzz//zOjRo3X2nTlzhvfff5/333+/0+v06dza2cTWCXoBs36CypzEw/rG+Yc//EHndR2fa3EGndwmKvXEiRPJy8tTgkDLsWPHdJ5bkpR3/PjxfPLJJyQlJelsP3z4MC0tLbi7uyvbWltbcXV17fSbCPC/g8DWCXrNxVjiYWPjNBdn0MltcnVo3rx5nDlzhg0bNnD69GkuXLhAYWEhe/fu1dGULUnKu2jRIr799lveeustTp8+zblz5/jwww8pLCxk/vz5AMon1z//+U8aGhqM/tCHrRP0Aly+fJn6+vpOD1NYMk5TOINObpOEvCqViq1bt9LW1sbatWtJSEjg3LlzpKSk6JwwW5KU18vLi61bt3Lz5k2SkpJYvnw5x48fZ8OGDTz00EMA9O/fn3nz5pGens7ixYt1ll76sGWCXoD4+HimTZvW6WEKS8dpDGdIFGy3KrVgH9xJOrmo1EKXcAadXAQ6wSR3uk4uM4FgkjtdJ5eZQHB6RKU2gqjUt/ph7KZdx++CO6J2LSq1EUSlthxH1K5FpTaCqNSW4ajatajUolIbVanbYyobuKNq16JSd0BUal2Vuj3GsoGD42rXolJ3QFRqXZW6PZ999pmSDfyuu+5SsoFrcVTtWlTqDohKbbieuro6g9nAwXG1a1GpOyAqtWEGDhxoMBs4OK52LSq1AUSl7oyxbODguNq1TbJSa1XqLVu2sHbtWnr16sVf/vIXUlJSdK4wGcoY7ebm1im7tFalzsjIICkpievXrxMYGGhQpf7444+Jj4+npKTEYD8TExPJzc0lMzOTqqoqVCoVYWFhxMTEALoq9YEDB6yaERtuqdT6MDXbWjpOc3nmmWcMZgMHx83iLSq1YDXsXbsWlVrodhxVuxaBTrAqjqhdy0wgWBVH1K57PAiKi4tZv369wf1ZWVk61567A3N+BccRbUiha/R4EDz88MOKT1NTU0N8fLzyHP53g6U78fT0JCoqSumDPrvTEW1IoWv0eBC4ubkpLr72mnlP30zx9vZWbvfrszvb25AuLi6KDfnwww/3aD+FnsEmFqkx9NmchsxMMGxSwq070PPnz2fKlClERUUpRmN7q1Kf3emoNqTQNXrcIjUXrc05aNAgg2amFn0mpUajISkpicjISPbs2cPcuXN55513aGpq0mlHn93pqDak0DXs9hKp1ub09vY2aWbqMym13kxLSwseHh488cQT/P3vfzfra5GOakMKXaPHLVJz0dqc5piZ+kxKDw8P0tLSKCgoIDc3l5EjRxIdHc2YMWNMtu2oNqTQNWxikZqD9oA2x8zUZ1LeuHGDpqYmXnvtNdra2pTvMJvzHV9HtSGFrmG3yyEt5piZhkhISODw4cNcunSJK1eu4OrqatBobG93OqoNKXQNmyTktQRjSW6N4ebmRmJiIjk5OcyePZv9+/ezdu1ane8VQOekuuAcSWiF/yEWqR7s3YYUuoZYpBbgqDak0DXs/pzAVjiiDSl0DZkJDOCINqTQNWQmEJweUakNICq18yAqtajUTo+o1KJSOz2iUotK7fSISi0qtdNjt1eHRKUWegpRqfUgKrVzISq1HkSldi7sdjmkRVRqobsRlVpUaqdHVGo9iEp9ZyIqtQWISu1c2P05ga0Qldp5kJnAAKJSOw8yEwhOj6jUBhCV2nkQlVpUaqdHVGpRqZ0eUalFpXZ6RKUWldrpsdurQ6JSCz2FqNR6EJXauRCVWg+iUjsXdrsc0iIqtdDdiEotKrXTIyq1HkSlvjMRldoCRKV2Luz+nMBWiErtPMhMYABRqZ0Hm84EO3fuJDQ0lD179pgs2151MLZPo9GQmZlJVFQUjz/+OHPnziUnJ4cbN25Yte+GqKmpYfXq1aSkpFj1DrrQfdg0CIqKirj77rspKiqyWp2pqamcOXOGpKQk8vLyeOWVVygtLSUjIwO4dZCa+wlvSVktarWaZ555hunTp5OSkkJbW5vFYxB6FpsFwblz56ioqCAxMZGffvqJyspKq9R77NgxYmNjCQoKon///gQHB7N8+XJKS0sB/daoISwpC7r26dChQxX7VLBvbGaRFhUV8cADD/Dggw8yZMgQnTvNbW1t7N27l3nz5vHkk08SHx/P999/b3If3PquwP79+7l27ZqyLTg4WFly6bNGDVmq+srevHmTrKwsZs6cydSpU1Gr1bS0tABinzoqNrNIi4qKCAsLA2DixIk6QbB371527tzJwoUL2bVrFy+88AJZWVkm9wGsWbOGH3/8kRkzZrBq1SoKCgr49ddflf0drdGGhgaDlqo+wzQvL4/KykrS09NRq9WcPn1aaV/sU8fEJsuh//znP1y8eJFJkyYB8Mgjj3D+/Hl+/vlnAD777DMWL17MhLfhWq4AAAWKSURBVAkTuOuuuwgJCVG+BGNsH8B9993Htm3bSEtLIzg4mEOHDjF79myDTpObm5tJS7U9Bw8e5KWXXsLPz49hw4YRFxfHiRMnALFPHRWbWKRFRUW0tLQwdepUne3FxcW8+OKL1NXVMWLECJ19WpnN2L6mpiZKS0uZPHkyQUFBBAUFERUVRW5uLhkZGXqvLpljqbbn4sWLTJs2TWeb1jgV+9Qx6XGLVGt0xsfH8/TTTyvbc3JyKCoq4sUXX2TgwIGcPXuWe++9V9l//vx5AKP7Wltb2bBhA0OGDNHZP3bsWPbv36+3P+ZYqu1RqVQkJyczaNAgAK5fv86lS5cAsU8dlR5fDn377bfU19cTHh5Onz59lEd4eDiVlZWcPXuWyMhIMjIyKC0tpb6+nq+//prs7GwAo/v69u1LREQESUlJfPXVV1RVVVFSUsKWLVsIDw/X6YfWGjXHUm1vmIaHh5ORkUFNTQ0VFRXKeQeIfeqoWPV/xxyLtKioiAcffBAfHx+d7UFBQQQEBFBcXMzChQtpbW1l69at1NXVMXToUF5//XWWLVvGM888Y3AfQGJiIrm5uWRmZlJVVYVKpSIsLIyYmBhA1xo9cOCAjqXq5eVFVFSUYqnm5+frlAWYM2cOW7duZdmyZTQ3NzN+/HgWL14M3LJPT506pYxJ7FPHQCxSKyL2qX0jFmkPIPapYyIWqZUR+9TxkJnAyoh96njITCA4PTaZCTretBowYADBwcEsXbqU/v37A+Ylze1JQkND2b17t3J/oCOSwNdxsdlMkJ6eTmFhIfn5+bz66qs0NDQQGxurKAbtk+Z2B13RpI0hCrXjYrMg8PHxwdfXF5VKxQMPPMCGDRsYOHAgn376KaCbNLc7sFSTNoYo1I6NXSXknTp1KmVlZUDnb5KZSq5bVlbGvHnziIyMRK1W09zcDJivSbe2trJjxw5mzZpFZGQkmzZt6iS+nTx5kpiYmE6Jf0WhdmzsKiHv4MGDqa6u7rTdnOS6hYWFbNy4kU2bNnHixAk++ugjizTp/Px8SkpKePvtt9m8eTMXLlxg165dOv04fvw4mZmZvPrqq+Tk5PD7778DolA7OnZ1idTQOlpfct3Q0FCd5LpLliwhICAAgAULFpCdnU10dDTbt2/H398fd3d3o5r0559/TmxsrGKRrlq1il9++UWnzKxZs+jTpw8TJkwA4Nq1a3h7extVqMUetX/sKiFvVVWV3qsv5iTXbf9JHBgYyMWLFy3SpOvq6pQg0tahTQqsRZv4t+Mv1ohC7djYVULezz77TK9wZk5y3crKSoYNG6b8rVKpLNKkVSoVtbW1SqCUl5dTVlZGdHS0UsbQzzWJQu3Y2Ozq0OXLl6mvr+e3337j22+/5Y033qC2tpaZM2fqLW8quW5aWhrV1dWcOXOGbdu2ER4ebpEmHRERQVZWFufPn6eiogK1Wk1tba1ZYxGF2rHpcZVaS3x8vPK3v78/Y8aMITMzEw8Pj05ltcl1s7OzSU5OJiAgoFNy3ccee4yEhAQaGxsJCwtjzpw5/N///Z/ZmnR0dDQajYbExEQ0Gg0hISHExcWZNRZRqB0bh1ep7eHOsijUjoGo1N2IKNSOjcMLdB4eHp2+sG8LRKF2XBx+JvDx8eHll1+2dTdEoXZgHH4mEITbRVRqMxGV+s5FVGorISq14yIqtRUQldqxEZVaVGqnR1RqUamdHru6RCoqtWALRKX+L6JSOy+iUv8XUamdF1GpRaV2ekSlFpXa6RGV2gqISu0YiErdjYhK7dg4vEAnKrVwuzj8TCAqtXC7OPxMIAi3iwSB4PRIEAhOjwSB4PQYPDFet25dD3ZDELqfH374Qe92fTfLHgJWdmtvBMF2HAc227oTgiAIgiAIgiAIgmA3/D+UfW41nZJpggAAAABJRU5ErkJggg==;" vertex="1" parent="WIyWlLk6GJQsqaUBKTNV-1">
          <mxGeometry x="20" y="60" width="193" height="264" as="geometry" />
        </mxCell>
        <mxCell id="_GL-RXjxP_ZW7CNbRat9-11" value="" style="endArrow=open;endFill=1;endSize=12;html=1;rounded=0;" edge="1" parent="WIyWlLk6GJQsqaUBKTNV-1">
          <mxGeometry width="160" relative="1" as="geometry">
            <mxPoint x="213" y="170" as="sourcePoint" />
            <mxPoint x="280" y="170" as="targetPoint" />
          </mxGeometry>
        </mxCell>
        <mxCell id="_GL-RXjxP_ZW7CNbRat9-13" value="" style="endArrow=open;endFill=1;endSize=12;html=1;rounded=0;entryX=1;entryY=0.75;entryDx=0;entryDy=0;exitX=0.006;exitY=0.591;exitDx=0;exitDy=0;exitPerimeter=0;" edge="1" parent="WIyWlLk6GJQsqaUBKTNV-1" source="_GL-RXjxP_ZW7CNbRat9-8" target="_GL-RXjxP_ZW7CNbRat9-10">
          <mxGeometry width="160" relative="1" as="geometry">
            <mxPoint x="223" y="180" as="sourcePoint" />
            <mxPoint x="290" y="180" as="targetPoint" />
            <Array as="points" />
          </mxGeometry>
        </mxCell>
        <mxCell id="_GL-RXjxP_ZW7CNbRat9-14" value="1" style="endArrow=open;html=1;endSize=12;startArrow=diamondThin;startSize=14;startFill=0;edgeStyle=orthogonalEdgeStyle;align=left;verticalAlign=bottom;rounded=0;exitX=1.018;exitY=0.285;exitDx=0;exitDy=0;entryX=0;entryY=0.5;entryDx=0;entryDy=0;exitPerimeter=0;" edge="1" parent="WIyWlLk6GJQsqaUBKTNV-1" source="_GL-RXjxP_ZW7CNbRat9-8" target="_GL-RXjxP_ZW7CNbRat9-9">
          <mxGeometry x="-1" y="3" relative="1" as="geometry">
            <mxPoint x="160" y="570" as="sourcePoint" />
            <mxPoint x="320" y="570" as="targetPoint" />
          </mxGeometry>
        </mxCell>
        <mxCell id="_GL-RXjxP_ZW7CNbRat9-15" value="Use" style="endArrow=open;endSize=12;dashed=1;html=1;rounded=0;exitX=0.5;exitY=1;exitDx=0;exitDy=0;entryX=0.5;entryY=0;entryDx=0;entryDy=0;" edge="1" parent="WIyWlLk6GJQsqaUBKTNV-1" source="_GL-RXjxP_ZW7CNbRat9-9" target="_GL-RXjxP_ZW7CNbRat9-5">
          <mxGeometry width="160" relative="1" as="geometry">
            <mxPoint x="160" y="410" as="sourcePoint" />
            <mxPoint x="320" y="410" as="targetPoint" />
          </mxGeometry>
        </mxCell>
        <mxCell id="_GL-RXjxP_ZW7CNbRat9-16" value="Use" style="endArrow=open;endSize=12;dashed=1;html=1;rounded=0;exitX=0.994;exitY=0.875;exitDx=0;exitDy=0;exitPerimeter=0;" edge="1" parent="WIyWlLk6GJQsqaUBKTNV-1" source="_GL-RXjxP_ZW7CNbRat9-8" target="_GL-RXjxP_ZW7CNbRat9-5">
          <mxGeometry width="160" relative="1" as="geometry">
            <mxPoint x="670.5" y="261" as="sourcePoint" />
            <mxPoint x="670.5" y="310" as="targetPoint" />
          </mxGeometry>
        </mxCell>
        <mxCell id="_GL-RXjxP_ZW7CNbRat9-17" value="PrecedingTarget" style="swimlane;fontStyle=1;align=center;verticalAlign=top;childLayout=stackLayout;horizontal=1;startSize=26;horizontalStack=0;resizeParent=1;resizeParentMax=0;resizeLast=0;collapsible=1;marginBottom=0;" vertex="1" parent="WIyWlLk6GJQsqaUBKTNV-1">
          <mxGeometry x="20" y="510" width="160" height="86" as="geometry" />
        </mxCell>
        <mxCell id="_GL-RXjxP_ZW7CNbRat9-18" value="+ field: type" style="text;strokeColor=none;fillColor=none;align=left;verticalAlign=top;spacingLeft=4;spacingRight=4;overflow=hidden;rotatable=0;points=[[0,0.5],[1,0.5]];portConstraint=eastwest;" vertex="1" parent="_GL-RXjxP_ZW7CNbRat9-17">
          <mxGeometry y="26" width="160" height="26" as="geometry" />
        </mxCell>
        <mxCell id="_GL-RXjxP_ZW7CNbRat9-19" value="" style="line;strokeWidth=1;fillColor=none;align=left;verticalAlign=middle;spacingTop=-1;spacingLeft=3;spacingRight=3;rotatable=0;labelPosition=right;points=[];portConstraint=eastwest;strokeColor=inherit;" vertex="1" parent="_GL-RXjxP_ZW7CNbRat9-17">
          <mxGeometry y="52" width="160" height="8" as="geometry" />
        </mxCell>
        <mxCell id="_GL-RXjxP_ZW7CNbRat9-20" value="+ method(type): type" style="text;strokeColor=none;fillColor=none;align=left;verticalAlign=top;spacingLeft=4;spacingRight=4;overflow=hidden;rotatable=0;points=[[0,0.5],[1,0.5]];portConstraint=eastwest;" vertex="1" parent="_GL-RXjxP_ZW7CNbRat9-17">
          <mxGeometry y="60" width="160" height="26" as="geometry" />
        </mxCell>
        <mxCell id="_GL-RXjxP_ZW7CNbRat9-21" value="NORMAL" style="swimlane;fontStyle=1;align=center;verticalAlign=top;childLayout=stackLayout;horizontal=1;startSize=26;horizontalStack=0;resizeParent=1;resizeParentMax=0;resizeLast=0;collapsible=1;marginBottom=0;" vertex="1" parent="WIyWlLk6GJQsqaUBKTNV-1">
          <mxGeometry x="53" y="680" width="160" height="86" as="geometry" />
        </mxCell>
        <mxCell id="_GL-RXjxP_ZW7CNbRat9-22" value="+ field: type" style="text;strokeColor=none;fillColor=none;align=left;verticalAlign=top;spacingLeft=4;spacingRight=4;overflow=hidden;rotatable=0;points=[[0,0.5],[1,0.5]];portConstraint=eastwest;" vertex="1" parent="_GL-RXjxP_ZW7CNbRat9-21">
          <mxGeometry y="26" width="160" height="26" as="geometry" />
        </mxCell>
        <mxCell id="_GL-RXjxP_ZW7CNbRat9-23" value="" style="line;strokeWidth=1;fillColor=none;align=left;verticalAlign=middle;spacingTop=-1;spacingLeft=3;spacingRight=3;rotatable=0;labelPosition=right;points=[];portConstraint=eastwest;strokeColor=inherit;" vertex="1" parent="_GL-RXjxP_ZW7CNbRat9-21">
          <mxGeometry y="52" width="160" height="8" as="geometry" />
        </mxCell>
        <mxCell id="_GL-RXjxP_ZW7CNbRat9-24" value="+ method(type): type" style="text;strokeColor=none;fillColor=none;align=left;verticalAlign=top;spacingLeft=4;spacingRight=4;overflow=hidden;rotatable=0;points=[[0,0.5],[1,0.5]];portConstraint=eastwest;" vertex="1" parent="_GL-RXjxP_ZW7CNbRat9-21">
          <mxGeometry y="60" width="160" height="26" as="geometry" />
        </mxCell>
        <mxCell id="_GL-RXjxP_ZW7CNbRat9-25" value="CUT IN" style="swimlane;fontStyle=1;align=center;verticalAlign=top;childLayout=stackLayout;horizontal=1;startSize=26;horizontalStack=0;resizeParent=1;resizeParentMax=0;resizeLast=0;collapsible=1;marginBottom=0;" vertex="1" parent="WIyWlLk6GJQsqaUBKTNV-1">
          <mxGeometry x="290" y="680" width="160" height="86" as="geometry" />
        </mxCell>
        <mxCell id="_GL-RXjxP_ZW7CNbRat9-26" value="+ field: type" style="text;strokeColor=none;fillColor=none;align=left;verticalAlign=top;spacingLeft=4;spacingRight=4;overflow=hidden;rotatable=0;points=[[0,0.5],[1,0.5]];portConstraint=eastwest;" vertex="1" parent="_GL-RXjxP_ZW7CNbRat9-25">
          <mxGeometry y="26" width="160" height="26" as="geometry" />
        </mxCell>
        <mxCell id="_GL-RXjxP_ZW7CNbRat9-27" value="" style="line;strokeWidth=1;fillColor=none;align=left;verticalAlign=middle;spacingTop=-1;spacingLeft=3;spacingRight=3;rotatable=0;labelPosition=right;points=[];portConstraint=eastwest;strokeColor=inherit;" vertex="1" parent="_GL-RXjxP_ZW7CNbRat9-25">
          <mxGeometry y="52" width="160" height="8" as="geometry" />
        </mxCell>
        <mxCell id="_GL-RXjxP_ZW7CNbRat9-28" value="+ method(type): type" style="text;strokeColor=none;fillColor=none;align=left;verticalAlign=top;spacingLeft=4;spacingRight=4;overflow=hidden;rotatable=0;points=[[0,0.5],[1,0.5]];portConstraint=eastwest;" vertex="1" parent="_GL-RXjxP_ZW7CNbRat9-25">
          <mxGeometry y="60" width="160" height="26" as="geometry" />
        </mxCell>
        <mxCell id="_GL-RXjxP_ZW7CNbRat9-29" value="CUT OUT" style="swimlane;fontStyle=1;align=center;verticalAlign=top;childLayout=stackLayout;horizontal=1;startSize=26;horizontalStack=0;resizeParent=1;resizeParentMax=0;resizeLast=0;collapsible=1;marginBottom=0;" vertex="1" parent="WIyWlLk6GJQsqaUBKTNV-1">
          <mxGeometry x="520" y="680" width="160" height="86" as="geometry" />
        </mxCell>
        <mxCell id="_GL-RXjxP_ZW7CNbRat9-30" value="+ field: type" style="text;strokeColor=none;fillColor=none;align=left;verticalAlign=top;spacingLeft=4;spacingRight=4;overflow=hidden;rotatable=0;points=[[0,0.5],[1,0.5]];portConstraint=eastwest;" vertex="1" parent="_GL-RXjxP_ZW7CNbRat9-29">
          <mxGeometry y="26" width="160" height="26" as="geometry" />
        </mxCell>
        <mxCell id="_GL-RXjxP_ZW7CNbRat9-31" value="" style="line;strokeWidth=1;fillColor=none;align=left;verticalAlign=middle;spacingTop=-1;spacingLeft=3;spacingRight=3;rotatable=0;labelPosition=right;points=[];portConstraint=eastwest;strokeColor=inherit;" vertex="1" parent="_GL-RXjxP_ZW7CNbRat9-29">
          <mxGeometry y="52" width="160" height="8" as="geometry" />
        </mxCell>
        <mxCell id="_GL-RXjxP_ZW7CNbRat9-32" value="+ method(type): type" style="text;strokeColor=none;fillColor=none;align=left;verticalAlign=top;spacingLeft=4;spacingRight=4;overflow=hidden;rotatable=0;points=[[0,0.5],[1,0.5]];portConstraint=eastwest;" vertex="1" parent="_GL-RXjxP_ZW7CNbRat9-29">
          <mxGeometry y="60" width="160" height="26" as="geometry" />
        </mxCell>
        <mxCell id="_GL-RXjxP_ZW7CNbRat9-33" value="Extends" style="endArrow=block;endSize=16;endFill=0;html=1;rounded=0;exitX=0.5;exitY=0;exitDx=0;exitDy=0;entryX=0.404;entryY=1.004;entryDx=0;entryDy=0;entryPerimeter=0;" edge="1" parent="WIyWlLk6GJQsqaUBKTNV-1" source="_GL-RXjxP_ZW7CNbRat9-17" target="_GL-RXjxP_ZW7CNbRat9-10">
          <mxGeometry width="160" relative="1" as="geometry">
            <mxPoint x="160" y="470" as="sourcePoint" />
            <mxPoint x="320" y="470" as="targetPoint" />
          </mxGeometry>
        </mxCell>
        <mxCell id="_GL-RXjxP_ZW7CNbRat9-34" value="Extends" style="endArrow=block;endSize=16;endFill=0;html=1;rounded=0;exitX=0.5;exitY=0;exitDx=0;exitDy=0;entryX=0.25;entryY=1;entryDx=0;entryDy=0;" edge="1" parent="WIyWlLk6GJQsqaUBKTNV-1" source="_GL-RXjxP_ZW7CNbRat9-21" target="_GL-RXjxP_ZW7CNbRat9-8">
          <mxGeometry width="160" relative="1" as="geometry">
            <mxPoint x="252.03" y="644.94" as="sourcePoint" />
            <mxPoint x="250.00199999999998" y="459.99600000000004" as="targetPoint" />
          </mxGeometry>
        </mxCell>
        <mxCell id="_GL-RXjxP_ZW7CNbRat9-35" value="Extends" style="endArrow=block;endSize=16;endFill=0;html=1;rounded=0;exitX=0.5;exitY=0;exitDx=0;exitDy=0;entryX=0.5;entryY=1;entryDx=0;entryDy=0;" edge="1" parent="WIyWlLk6GJQsqaUBKTNV-1" source="_GL-RXjxP_ZW7CNbRat9-25" target="_GL-RXjxP_ZW7CNbRat9-8">
          <mxGeometry width="160" relative="1" as="geometry">
            <mxPoint x="250" y="690" as="sourcePoint" />
            <mxPoint x="334.75" y="407" as="targetPoint" />
          </mxGeometry>
        </mxCell>
        <mxCell id="_GL-RXjxP_ZW7CNbRat9-36" value="Extends" style="endArrow=block;endSize=16;endFill=0;html=1;rounded=0;exitX=0.5;exitY=0;exitDx=0;exitDy=0;entryX=0.75;entryY=1;entryDx=0;entryDy=0;" edge="1" parent="WIyWlLk6GJQsqaUBKTNV-1" source="_GL-RXjxP_ZW7CNbRat9-29" target="_GL-RXjxP_ZW7CNbRat9-8">
          <mxGeometry width="160" relative="1" as="geometry">
            <mxPoint x="430" y="690" as="sourcePoint" />
            <mxPoint x="377.5" y="407" as="targetPoint" />
          </mxGeometry>
        </mxCell>
        <mxCell id="_GL-RXjxP_ZW7CNbRat9-37" value="......" style="text;html=1;align=center;verticalAlign=middle;resizable=0;points=[];autosize=1;strokeColor=none;fillColor=none;" vertex="1" parent="WIyWlLk6GJQsqaUBKTNV-1">
          <mxGeometry x="230" y="708" width="40" height="30" as="geometry" />
        </mxCell>
        <mxCell id="_GL-RXjxP_ZW7CNbRat9-38" value="......" style="text;html=1;align=center;verticalAlign=middle;resizable=0;points=[];autosize=1;strokeColor=none;fillColor=none;" vertex="1" parent="WIyWlLk6GJQsqaUBKTNV-1">
          <mxGeometry x="460" y="700" width="40" height="30" as="geometry" />
        </mxCell>
        <mxCell id="_GL-RXjxP_ZW7CNbRat9-39" value="1" style="endArrow=open;html=1;endSize=12;startArrow=diamondThin;startSize=14;startFill=0;edgeStyle=orthogonalEdgeStyle;align=left;verticalAlign=bottom;rounded=0;exitX=1;exitY=0.25;exitDx=0;exitDy=0;" edge="1" parent="WIyWlLk6GJQsqaUBKTNV-1" source="_GL-RXjxP_ZW7CNbRat9-10">
          <mxGeometry x="-1" y="3" relative="1" as="geometry">
            <mxPoint x="466.078" y="166.04500000000007" as="sourcePoint" />
            <mxPoint x="280" y="126" as="targetPoint" />
          </mxGeometry>
        </mxCell>
        <mxCell id="_GL-RXjxP_ZW7CNbRat9-40" value="cut in trigger Event" style="swimlane;fontStyle=1;align=center;verticalAlign=top;childLayout=stackLayout;horizontal=1;startSize=26;horizontalStack=0;resizeParent=1;resizeParentMax=0;resizeLast=0;collapsible=1;marginBottom=0;" vertex="1" parent="WIyWlLk6GJQsqaUBKTNV-1">
          <mxGeometry x="660" y="490" width="160" height="86" as="geometry" />
        </mxCell>
        <mxCell id="_GL-RXjxP_ZW7CNbRat9-41" value="+ field: type" style="text;strokeColor=none;fillColor=none;align=left;verticalAlign=top;spacingLeft=4;spacingRight=4;overflow=hidden;rotatable=0;points=[[0,0.5],[1,0.5]];portConstraint=eastwest;" vertex="1" parent="_GL-RXjxP_ZW7CNbRat9-40">
          <mxGeometry y="26" width="160" height="26" as="geometry" />
        </mxCell>
        <mxCell id="_GL-RXjxP_ZW7CNbRat9-42" value="" style="line;strokeWidth=1;fillColor=none;align=left;verticalAlign=middle;spacingTop=-1;spacingLeft=3;spacingRight=3;rotatable=0;labelPosition=right;points=[];portConstraint=eastwest;strokeColor=inherit;" vertex="1" parent="_GL-RXjxP_ZW7CNbRat9-40">
          <mxGeometry y="52" width="160" height="8" as="geometry" />
        </mxCell>
        <mxCell id="_GL-RXjxP_ZW7CNbRat9-43" value="+ method(type): type" style="text;strokeColor=none;fillColor=none;align=left;verticalAlign=top;spacingLeft=4;spacingRight=4;overflow=hidden;rotatable=0;points=[[0,0.5],[1,0.5]];portConstraint=eastwest;" vertex="1" parent="_GL-RXjxP_ZW7CNbRat9-40">
          <mxGeometry y="60" width="160" height="26" as="geometry" />
        </mxCell>
        <mxCell id="_GL-RXjxP_ZW7CNbRat9-44" value="......" style="text;html=1;align=center;verticalAlign=middle;resizable=0;points=[];autosize=1;strokeColor=none;fillColor=none;" vertex="1" parent="WIyWlLk6GJQsqaUBKTNV-1">
          <mxGeometry x="710" y="588" width="40" height="30" as="geometry" />
        </mxCell>
        <mxCell id="_GL-RXjxP_ZW7CNbRat9-45" value="Extends" style="endArrow=block;endSize=16;endFill=0;html=1;rounded=0;exitX=0.5;exitY=0;exitDx=0;exitDy=0;entryX=0.75;entryY=1;entryDx=0;entryDy=0;" edge="1" parent="WIyWlLk6GJQsqaUBKTNV-1" source="_GL-RXjxP_ZW7CNbRat9-40" target="_GL-RXjxP_ZW7CNbRat9-5">
          <mxGeometry width="160" relative="1" as="geometry">
            <mxPoint x="610" y="690" as="sourcePoint" />
            <mxPoint x="420.25" y="407" as="targetPoint" />
          </mxGeometry>
        </mxCell>
      </root>
    </mxGraphModel>
  </diagram>
</mxfile>
